<?xml version="1.0" encoding="UTF-8"?>
<svg xmlns="http://www.w3.org/2000/svg" viewBox="0 0 24 24" fill="#9C27B0">
    <path d="M13 3C9.2 3 6.2 5.9 6 9.7L4.1 12.2C3.9 12.5 4.1 13 4.5 13H6V16C6 17.1 6.9 18 8 18H9V21H16V16.3C18.4 15.2 20 12.8 20 10C20 6.1 16.9 3 13 3M15.8 12.3L14.9 13.2C14.8 13.3 14.7 13.4 14.7 13.5L14.3 14.7C14.3 14.8 14.2 14.9 14.1 15C14 15 13.9 15 13.8 15L12.6 14.6C12.5 14.5 12.4 14.5 12.3 14.6L11.4 15.5C11.3 15.6 11.1 15.6 11 15.5L10.6 15.1C10.5 15 10.5 14.7 10.6 14.6L11.5 13.7C11.6 13.6 11.6 13.5 11.6 13.4L11.2 12.2C11.2 12.1 11.2 12 11.2 11.9C11.3 11.8 11.4 11.8 11.5 11.8L12.7 12.2C12.8 12.3 12.9 12.3 13 12.2L13.9 11.3C14 11.2 14.2 11.2 14.3 11.3L14.7 11.7C14.8 11.8 14.8 12.1 14.7 12.2V12.3Z"/>
</svg>