<?xml version="1.0" encoding="UTF-8" standalone="no"?>
<!DOCTYPE svg PUBLIC "-//W3C//DTD SVG 1.1//EN"
 "http://www.w3.org/Graphics/SVG/1.1/DTD/svg11.dtd">
<!-- Generated by graphviz version 2.43.0 (0)
 -->
<!-- Title: DeepCV Pages: 1 -->
<svg width="453pt" height="925pt"
 viewBox="0.00 0.00 453.24 925.34" xmlns="http://www.w3.org/2000/svg" xmlns:xlink="http://www.w3.org/1999/xlink">
<g id="graph0" class="graph" transform="scale(1 1) rotate(0) translate(4 921.34)">
<title>DeepCV</title>
<polygon fill="white" stroke="transparent" points="-4,4 -4,-921.34 449.24,-921.34 449.24,4 -4,4"/>
<!-- start -->
<g id="node1" class="node">
<title>start</title>
<ellipse fill="lightblue" stroke="black" cx="127.24" cy="-888.41" rx="28.87" ry="28.87"/>
<text text-anchor="middle" x="127.24" y="-885.31" font-family="Times,serif" font-size="12.00">Start</text>
</g>
<!-- input -->
<g id="node2" class="node">
<title>input</title>
<path fill="none" stroke="black" d="M177.74,-822.48C177.74,-822.48 76.74,-822.48 76.74,-822.48 70.74,-822.48 64.74,-816.48 64.74,-810.48 64.74,-810.48 64.74,-798.48 64.74,-798.48 64.74,-792.48 70.74,-786.48 76.74,-786.48 76.74,-786.48 177.74,-786.48 177.74,-786.48 183.74,-786.48 189.74,-792.48 189.74,-798.48 189.74,-798.48 189.74,-810.48 189.74,-810.48 189.74,-816.48 183.74,-822.48 177.74,-822.48"/>
<text text-anchor="middle" x="127.24" y="-807.88" font-family="Times,serif" font-size="12.00">CV Data Input</text>
<text text-anchor="middle" x="127.24" y="-794.88" font-family="Times,serif" font-size="12.00">(Voltage, Current)</text>
</g>
<!-- start&#45;&gt;input -->
<g id="edge1" class="edge">
<title>start&#45;&gt;input</title>
<path fill="none" stroke="black" d="M127.24,-859.21C127.24,-850.62 127.24,-841.2 127.24,-832.67"/>
<polygon fill="black" stroke="black" points="130.74,-832.49 127.24,-822.49 123.74,-832.49 130.74,-832.49"/>
</g>
<!-- validate -->
<g id="node3" class="node">
<title>validate</title>
<path fill="none" stroke="black" d="M170.24,-749.48C170.24,-749.48 84.24,-749.48 84.24,-749.48 78.24,-749.48 72.24,-743.48 72.24,-737.48 72.24,-737.48 72.24,-725.48 72.24,-725.48 72.24,-719.48 78.24,-713.48 84.24,-713.48 84.24,-713.48 170.24,-713.48 170.24,-713.48 176.24,-713.48 182.24,-719.48 182.24,-725.48 182.24,-725.48 182.24,-737.48 182.24,-737.48 182.24,-743.48 176.24,-749.48 170.24,-749.48"/>
<text text-anchor="middle" x="127.24" y="-728.38" font-family="Times,serif" font-size="12.00">Data Validation</text>
</g>
<!-- input&#45;&gt;validate -->
<g id="edge2" class="edge">
<title>input&#45;&gt;validate</title>
<path fill="none" stroke="black" d="M127.24,-786.29C127.24,-778.27 127.24,-768.53 127.24,-759.55"/>
<polygon fill="black" stroke="black" points="130.74,-759.51 127.24,-749.51 123.74,-759.51 130.74,-759.51"/>
</g>
<!-- valid -->
<g id="node5" class="node">
<title>valid</title>
<path fill="none" stroke="black" d="M117.14,-670C117.14,-670 84.34,-648.96 84.34,-648.96 79.29,-645.72 79.29,-639.24 84.34,-636 84.34,-636 117.14,-614.96 117.14,-614.96 122.19,-611.72 132.29,-611.72 137.34,-614.96 137.34,-614.96 170.14,-636 170.14,-636 175.19,-639.24 175.19,-645.72 170.14,-648.96 170.14,-648.96 137.34,-670 137.34,-670 132.29,-673.24 122.19,-673.24 117.14,-670"/>
<text text-anchor="middle" x="127.24" y="-645.88" font-family="Times,serif" font-size="12.00">Valid</text>
<text text-anchor="middle" x="127.24" y="-632.88" font-family="Times,serif" font-size="12.00">Data?</text>
</g>
<!-- validate&#45;&gt;valid -->
<g id="edge3" class="edge">
<title>validate&#45;&gt;valid</title>
<path fill="none" stroke="black" d="M127.24,-713.29C127.24,-705.58 127.24,-696.1 127.24,-686.65"/>
<polygon fill="black" stroke="black" points="130.74,-686.48 127.24,-676.48 123.74,-686.48 130.74,-686.48"/>
</g>
<!-- error -->
<g id="node4" class="node">
<title>error</title>
<polygon fill="pink" stroke="black" points="120.74,-561.48 31.74,-561.48 31.74,-525.48 120.74,-525.48 120.74,-561.48"/>
<text text-anchor="middle" x="76.24" y="-546.88" font-family="Times,serif" font-size="12.00">Show Error</text>
<text text-anchor="middle" x="76.24" y="-533.88" font-family="Times,serif" font-size="12.00">Message</text>
</g>
<!-- end -->
<g id="node13" class="node">
<title>end</title>
<ellipse fill="lightgreen" stroke="black" cx="25.24" cy="-25.24" rx="25.48" ry="25.48"/>
<text text-anchor="middle" x="25.24" y="-22.14" font-family="Times,serif" font-size="12.00">End</text>
</g>
<!-- error&#45;&gt;end -->
<g id="edge6" class="edge">
<title>error&#45;&gt;end</title>
<path fill="none" stroke="black" d="M48.06,-525.35C31.28,-512.8 13.24,-494.05 13.24,-471.48 13.24,-471.48 13.24,-471.48 13.24,-104.48 13.24,-89.8 15.33,-73.76 17.76,-60.04"/>
<polygon fill="black" stroke="black" points="21.23,-60.54 19.66,-50.06 14.35,-59.23 21.23,-60.54"/>
</g>
<!-- valid&#45;&gt;error -->
<g id="edge5" class="edge">
<title>valid&#45;&gt;error</title>
<path fill="none" stroke="black" d="M114.24,-616.75C106.78,-602.57 97.43,-584.78 89.87,-570.41"/>
<polygon fill="black" stroke="black" points="92.95,-568.74 85.2,-561.52 86.76,-572 92.95,-568.74"/>
<text text-anchor="middle" x="108.24" y="-582.48" font-family="Times,serif" font-size="10.00">No</text>
</g>
<!-- normalize -->
<g id="node6" class="node">
<title>normalize</title>
<path fill="none" stroke="black" d="M239.24,-561.48C239.24,-561.48 183.24,-561.48 183.24,-561.48 177.24,-561.48 171.24,-555.48 171.24,-549.48 171.24,-549.48 171.24,-537.48 171.24,-537.48 171.24,-531.48 177.24,-525.48 183.24,-525.48 183.24,-525.48 239.24,-525.48 239.24,-525.48 245.24,-525.48 251.24,-531.48 251.24,-537.48 251.24,-537.48 251.24,-549.48 251.24,-549.48 251.24,-555.48 245.24,-561.48 239.24,-561.48"/>
<text text-anchor="middle" x="211.24" y="-546.88" font-family="Times,serif" font-size="12.00">Normalize</text>
<text text-anchor="middle" x="211.24" y="-533.88" font-family="Times,serif" font-size="12.00">Current</text>
</g>
<!-- valid&#45;&gt;normalize -->
<g id="edge4" class="edge">
<title>valid&#45;&gt;normalize</title>
<path fill="none" stroke="black" d="M145.88,-619.95C158.81,-605.03 176.06,-585.11 189.59,-569.48"/>
<polygon fill="black" stroke="black" points="192.38,-571.6 196.29,-561.75 187.09,-567.01 192.38,-571.6"/>
<text text-anchor="middle" x="187.24" y="-582.48" font-family="Times,serif" font-size="10.00">Yes</text>
</g>
<!-- detect -->
<g id="node7" class="node">
<title>detect</title>
<path fill="none" stroke="black" d="M291.24,-488.48C291.24,-488.48 171.24,-488.48 171.24,-488.48 165.24,-488.48 159.24,-482.48 159.24,-476.48 159.24,-476.48 159.24,-464.48 159.24,-464.48 159.24,-458.48 165.24,-452.48 171.24,-452.48 171.24,-452.48 291.24,-452.48 291.24,-452.48 297.24,-452.48 303.24,-458.48 303.24,-464.48 303.24,-464.48 303.24,-476.48 303.24,-476.48 303.24,-482.48 297.24,-488.48 291.24,-488.48"/>
<text text-anchor="middle" x="231.24" y="-473.88" font-family="Times,serif" font-size="12.00">Peak Detection</text>
<text text-anchor="middle" x="231.24" y="-460.88" font-family="Times,serif" font-size="12.00">(Positive &amp; Negative)</text>
</g>
<!-- normalize&#45;&gt;detect -->
<g id="edge7" class="edge">
<title>normalize&#45;&gt;detect</title>
<path fill="none" stroke="black" d="M216.08,-525.29C218.37,-517.18 221.14,-507.31 223.7,-498.25"/>
<polygon fill="black" stroke="black" points="227.1,-499.08 226.44,-488.51 220.36,-497.18 227.1,-499.08"/>
</g>
<!-- extract -->
<g id="node8" class="node">
<title>extract</title>
<path fill="none" stroke="black" d="M433.24,-415.48C433.24,-415.48 53.24,-415.48 53.24,-415.48 47.24,-415.48 41.24,-409.48 41.24,-403.48 41.24,-403.48 41.24,-391.48 41.24,-391.48 41.24,-385.48 47.24,-379.48 53.24,-379.48 53.24,-379.48 433.24,-379.48 433.24,-379.48 439.24,-379.48 445.24,-385.48 445.24,-391.48 445.24,-391.48 445.24,-403.48 445.24,-403.48 445.24,-409.48 439.24,-415.48 433.24,-415.48"/>
<text text-anchor="middle" x="243.24" y="-400.88" font-family="Times,serif" font-size="12.00">Feature Extraction</text>
<text text-anchor="middle" x="243.24" y="-387.88" font-family="Times,serif" font-size="12.00"> FWHM, Asymmetry, peak area, noise level, Position score, SNR</text>
</g>
<!-- detect&#45;&gt;extract -->
<g id="edge8" class="edge">
<title>detect&#45;&gt;extract</title>
<path fill="none" stroke="black" d="M234.14,-452.29C235.5,-444.27 237.15,-434.53 238.66,-425.55"/>
<polygon fill="black" stroke="black" points="242.15,-425.95 240.36,-415.51 235.24,-424.78 242.15,-425.95"/>
</g>
<!-- score -->
<g id="node9" class="node">
<title>score</title>
<path fill="none" stroke="black" d="M255.24,-342.48C255.24,-342.48 195.24,-342.48 195.24,-342.48 189.24,-342.48 183.24,-336.48 183.24,-330.48 183.24,-330.48 183.24,-318.48 183.24,-318.48 183.24,-312.48 189.24,-306.48 195.24,-306.48 195.24,-306.48 255.24,-306.48 255.24,-306.48 261.24,-306.48 267.24,-312.48 267.24,-318.48 267.24,-318.48 267.24,-330.48 267.24,-330.48 267.24,-336.48 261.24,-342.48 255.24,-342.48"/>
<text text-anchor="middle" x="225.24" y="-327.88" font-family="Times,serif" font-size="12.00">Confidence</text>
<text text-anchor="middle" x="225.24" y="-314.88" font-family="Times,serif" font-size="12.00">Scoring</text>
</g>
<!-- extract&#45;&gt;score -->
<g id="edge9" class="edge">
<title>extract&#45;&gt;score</title>
<path fill="none" stroke="black" d="M238.88,-379.29C236.83,-371.18 234.32,-361.31 232.03,-352.25"/>
<polygon fill="black" stroke="black" points="235.41,-351.34 229.56,-342.51 228.62,-353.06 235.41,-351.34"/>
</g>
<!-- filter -->
<g id="node10" class="node">
<title>filter</title>
<path fill="none" stroke="black" d="M181.24,-269.48C181.24,-269.48 89.24,-269.48 89.24,-269.48 83.24,-269.48 77.24,-263.48 77.24,-257.48 77.24,-257.48 77.24,-245.48 77.24,-245.48 77.24,-239.48 83.24,-233.48 89.24,-233.48 89.24,-233.48 181.24,-233.48 181.24,-233.48 187.24,-233.48 193.24,-239.48 193.24,-245.48 193.24,-245.48 193.24,-257.48 193.24,-257.48 193.24,-263.48 187.24,-269.48 181.24,-269.48"/>
<text text-anchor="middle" x="135.24" y="-254.88" font-family="Times,serif" font-size="12.00">Apply Threshold</text>
<text text-anchor="middle" x="135.24" y="-241.88" font-family="Times,serif" font-size="12.00">(&gt;30%)</text>
</g>
<!-- score&#45;&gt;filter -->
<g id="edge10" class="edge">
<title>score&#45;&gt;filter</title>
<path fill="none" stroke="black" d="M203.45,-306.29C191.84,-297.13 177.4,-285.74 164.79,-275.79"/>
<polygon fill="black" stroke="black" points="166.84,-272.95 156.82,-269.51 162.51,-278.45 166.84,-272.95"/>
</g>
<!-- classify -->
<g id="node11" class="node">
<title>classify</title>
<path fill="none" stroke="black" d="M149.24,-196.48C149.24,-196.48 75.24,-196.48 75.24,-196.48 69.24,-196.48 63.24,-190.48 63.24,-184.48 63.24,-184.48 63.24,-172.48 63.24,-172.48 63.24,-166.48 69.24,-160.48 75.24,-160.48 75.24,-160.48 149.24,-160.48 149.24,-160.48 155.24,-160.48 161.24,-166.48 161.24,-172.48 161.24,-172.48 161.24,-184.48 161.24,-184.48 161.24,-190.48 155.24,-196.48 149.24,-196.48"/>
<text text-anchor="middle" x="112.24" y="-181.88" font-family="Times,serif" font-size="12.00">Peak</text>
<text text-anchor="middle" x="112.24" y="-168.88" font-family="Times,serif" font-size="12.00">Classification</text>
</g>
<!-- filter&#45;&gt;classify -->
<g id="edge11" class="edge">
<title>filter&#45;&gt;classify</title>
<path fill="none" stroke="black" d="M129.67,-233.29C127.04,-225.18 123.85,-215.31 120.91,-206.25"/>
<polygon fill="black" stroke="black" points="124.17,-204.94 117.76,-196.51 117.51,-207.1 124.17,-204.94"/>
</g>
<!-- results -->
<g id="node12" class="node">
<title>results</title>
<path fill="none" stroke="black" d="M109.24,-123.48C109.24,-123.48 73.24,-123.48 73.24,-123.48 67.24,-123.48 61.24,-117.48 61.24,-111.48 61.24,-111.48 61.24,-99.48 61.24,-99.48 61.24,-93.48 67.24,-87.48 73.24,-87.48 73.24,-87.48 109.24,-87.48 109.24,-87.48 115.24,-87.48 121.24,-93.48 121.24,-99.48 121.24,-99.48 121.24,-111.48 121.24,-111.48 121.24,-117.48 115.24,-123.48 109.24,-123.48"/>
<text text-anchor="middle" x="91.24" y="-108.88" font-family="Times,serif" font-size="12.00">Return</text>
<text text-anchor="middle" x="91.24" y="-95.88" font-family="Times,serif" font-size="12.00">Results</text>
</g>
<!-- classify&#45;&gt;results -->
<g id="edge12" class="edge">
<title>classify&#45;&gt;results</title>
<path fill="none" stroke="black" d="M107.16,-160.29C104.76,-152.18 101.84,-142.31 99.16,-133.25"/>
<polygon fill="black" stroke="black" points="102.47,-132.1 96.28,-123.51 95.76,-134.09 102.47,-132.1"/>
</g>
<!-- results&#45;&gt;end -->
<g id="edge13" class="edge">
<title>results&#45;&gt;end</title>
<path fill="none" stroke="black" d="M76.59,-87.11C68.16,-77.12 57.38,-64.34 47.87,-53.07"/>
<polygon fill="black" stroke="black" points="50.35,-50.58 41.23,-45.2 45,-55.1 50.35,-50.58"/>
</g>
</g>
</svg>
