<?xml version="1.0" encoding="UTF-8" standalone="no"?>
<!DOCTYPE svg PUBLIC "-//W3C//DTD SVG 1.1//EN"
 "http://www.w3.org/Graphics/SVG/1.1/DTD/svg11.dtd">
<!-- Generated by graphviz version 2.43.0 (0)
 -->
<!-- Title: ButlerVolmerEnhancedCalibration Pages: 1 -->
<svg width="706pt" height="1320pt"
 viewBox="0.00 0.00 705.50 1320.41" xmlns="http://www.w3.org/2000/svg" xmlns:xlink="http://www.w3.org/1999/xlink">
<g id="graph0" class="graph" transform="scale(1 1) rotate(0) translate(4 1316.41)">
<title>ButlerVolmerEnhancedCalibration</title>
<polygon fill="white" stroke="transparent" points="-4,4 -4,-1316.41 701.5,-1316.41 701.5,4 -4,4"/>
<g id="clust1" class="cluster">
<title>cluster_data</title>
<polygon fill="#e8f4fd" stroke="#e8f4fd" points="143,-1129.41 143,-1229.41 511,-1229.41 511,-1129.41 143,-1129.41"/>
<text text-anchor="middle" x="327" y="-1214.21" font-family="Arial" font-size="14.00">Experimental Data</text>
</g>
<g id="clust2" class="cluster">
<title>cluster_bv_analysis</title>
<polygon fill="#f3e5f5" stroke="#f3e5f5" points="218,-699.41 218,-1109.41 410,-1109.41 410,-699.41 218,-699.41"/>
<text text-anchor="middle" x="314" y="-1094.21" font-family="Arial" font-size="14.00">Butler&#45;Volmer Analysis</text>
</g>
<g id="clust3" class="cluster">
<title>cluster_calibration</title>
<polygon fill="#fff3e0" stroke="#fff3e0" points="156,-236 156,-650.41 354,-650.41 354,-236 156,-236"/>
<text text-anchor="middle" x="255" y="-635.21" font-family="Arial" font-size="14.00">Enhanced Calibration Process</text>
</g>
<g id="clust4" class="cluster">
<title>cluster_implementation</title>
<polygon fill="#e8f5e8" stroke="#e8f5e8" points="448,-8 448,-217 606,-217 606,-8 448,-8"/>
<text text-anchor="middle" x="527" y="-201.8" font-family="Arial" font-size="14.00">STM32 Implementation</text>
</g>
<!-- title -->
<g id="node1" class="node">
<title>title</title>
<text text-anchor="start" x="57.5" y="-1288.21" font-family="Arial" font-weight="bold" font-size="14.00">Butler&#45;Volmer Enhanced Transfer Calibration</text>
<text text-anchor="start" x="68" y="-1274.21" font-family="Arial" font-size="14.00">Electrochemical Parameter&#45;Based Approach</text>
</g>
<!-- cv_stm32 -->
<g id="node2" class="node">
<title>cv_stm32</title>
<polygon fill="#ff9800" stroke="black" stroke-width="2" points="252.5,-1198.41 151.5,-1198.41 151.5,-1137.41 252.5,-1137.41 252.5,-1198.41"/>
<text text-anchor="middle" x="202" y="-1176.41" font-family="Arial" font-size="10.00">STM32 CV Data</text>
<text text-anchor="middle" x="202" y="-1165.41" font-family="Arial" font-size="10.00">Voltage, Current</text>
<text text-anchor="middle" x="202" y="-1154.41" font-family="Arial" font-size="10.00">time series</text>
</g>
<!-- title&#45;&gt;cv_stm32 -->
<!-- bv_extract -->
<g id="node5" class="node">
<title>bv_extract</title>
<polygon fill="none" stroke="black" stroke-width="2" points="388.5,-1078.41 267.5,-1078.41 267.5,-1017.41 388.5,-1017.41 388.5,-1078.41"/>
<text text-anchor="middle" x="328" y="-1056.41" font-family="Arial" font-size="10.00">Parameter Extraction</text>
<text text-anchor="middle" x="328" y="-1045.41" font-family="Arial" font-size="10.00">i₀, E₀, α_a, α_c</text>
<text text-anchor="middle" x="328" y="-1034.41" font-family="Arial" font-size="10.00">Physical meaning</text>
</g>
<!-- cv_stm32&#45;&gt;bv_extract -->
<g id="edge2" class="edge">
<title>cv_stm32&#45;&gt;bv_extract</title>
<path fill="none" stroke="black" stroke-width="1.5" d="M233.8,-1137.14C250.51,-1121.48 271.14,-1102.16 288.83,-1085.59"/>
<polygon fill="black" stroke="black" stroke-width="1.5" points="291.31,-1088.07 296.22,-1078.68 286.52,-1082.96 291.31,-1088.07"/>
</g>
<!-- cv_palmsens -->
<g id="node3" class="node">
<title>cv_palmsens</title>
<polygon fill="#03a9f4" stroke="black" stroke-width="2" points="385.5,-1198.41 270.5,-1198.41 270.5,-1137.41 385.5,-1137.41 385.5,-1198.41"/>
<text text-anchor="middle" x="328" y="-1176.41" font-family="Arial" font-size="10.00">PalmSens CV Data</text>
<text text-anchor="middle" x="328" y="-1165.41" font-family="Arial" font-size="10.00">Voltage, Current</text>
<text text-anchor="middle" x="328" y="-1154.41" font-family="Arial" font-size="10.00">time series</text>
</g>
<!-- cv_palmsens&#45;&gt;bv_extract -->
<g id="edge3" class="edge">
<title>cv_palmsens&#45;&gt;bv_extract</title>
<path fill="none" stroke="black" stroke-width="1.5" d="M328,-1137.14C328,-1122.46 328,-1104.56 328,-1088.73"/>
<polygon fill="black" stroke="black" stroke-width="1.5" points="331.5,-1088.68 328,-1078.68 324.5,-1088.68 331.5,-1088.68"/>
</g>
<!-- cv_keisight -->
<g id="node4" class="node">
<title>cv_keisight</title>
<polygon fill="#ffeb3b" stroke="black" stroke-width="2" points="502.5,-1198.41 403.5,-1198.41 403.5,-1137.41 502.5,-1137.41 502.5,-1198.41"/>
<text text-anchor="middle" x="453" y="-1176.41" font-family="Arial" font-size="10.00">Keisight Voltage</text>
<text text-anchor="middle" x="453" y="-1165.41" font-family="Arial" font-size="10.00">Reference</text>
<text text-anchor="middle" x="453" y="-1154.41" font-family="Arial" font-size="10.00">High precision</text>
</g>
<!-- cv_keisight&#45;&gt;bv_extract -->
<g id="edge4" class="edge">
<title>cv_keisight&#45;&gt;bv_extract</title>
<path fill="none" stroke="black" stroke-width="1.5" d="M421.46,-1137.14C404.88,-1121.48 384.41,-1102.16 366.86,-1085.59"/>
<polygon fill="black" stroke="black" stroke-width="1.5" points="369.21,-1083 359.53,-1078.68 364.4,-1088.09 369.21,-1083"/>
</g>
<!-- bv_fit -->
<g id="node6" class="node">
<title>bv_fit</title>
<polygon fill="none" stroke="black" stroke-width="2" points="396.5,-952.91 231.5,-952.91 231.5,-891.91 396.5,-891.91 396.5,-952.91"/>
<text text-anchor="middle" x="314" y="-930.91" font-family="Arial" font-size="10.00">Butler&#45;Volmer Fitting</text>
<text text-anchor="middle" x="314" y="-919.91" font-family="Arial" font-size="10.00">i = i₀[exp(αη/RT) &#45; exp(&#45;αη/RT)]</text>
<text text-anchor="middle" x="314" y="-908.91" font-family="Arial" font-size="10.00">Non&#45;linear regression</text>
</g>
<!-- bv_extract&#45;&gt;bv_fit -->
<g id="edge5" class="edge">
<title>bv_extract&#45;&gt;bv_fit</title>
<path fill="none" stroke="black" stroke-width="1.5" d="M324.65,-1017.33C322.81,-1001.1 320.5,-980.77 318.51,-963.17"/>
<polygon fill="black" stroke="black" stroke-width="1.5" points="321.98,-962.72 317.37,-953.18 315.02,-963.51 321.98,-962.72"/>
</g>
<!-- bv_validate -->
<g id="node7" class="node">
<title>bv_validate</title>
<polygon fill="#fff9c4" stroke="black" stroke-width="2" points="314,-829.41 226,-768.41 314,-707.41 402,-768.41 314,-829.41"/>
<text text-anchor="middle" x="314" y="-776.91" font-family="Arial" font-size="10.00">Kinetic</text>
<text text-anchor="middle" x="314" y="-765.91" font-family="Arial" font-size="10.00">Validation</text>
<text text-anchor="middle" x="314" y="-754.91" font-family="Arial" font-size="10.00">α consistent?</text>
</g>
<!-- bv_fit&#45;&gt;bv_validate -->
<g id="edge6" class="edge">
<title>bv_fit&#45;&gt;bv_validate</title>
<path fill="none" stroke="black" stroke-width="1.5" d="M314,-891.74C314,-876.8 314,-857.99 314,-839.63"/>
<polygon fill="black" stroke="black" stroke-width="1.5" points="317.5,-839.51 314,-829.51 310.5,-839.51 317.5,-839.51"/>
</g>
<!-- step1 -->
<g id="node8" class="node">
<title>step1</title>
<polygon fill="none" stroke="black" stroke-width="2" points="317.5,-619.41 208.5,-619.41 208.5,-558.41 317.5,-558.41 317.5,-619.41"/>
<text text-anchor="middle" x="263" y="-597.41" font-family="Arial" font-size="10.00">1. E₀ Calibration</text>
<text text-anchor="middle" x="263" y="-586.41" font-family="Arial" font-size="10.00">Standard Potential</text>
<text text-anchor="middle" x="263" y="-575.41" font-family="Arial" font-size="10.00">Correction</text>
</g>
<!-- bv_validate&#45;&gt;step1 -->
<g id="edge7" class="edge">
<title>bv_validate&#45;&gt;step1</title>
<path fill="none" stroke="green" stroke-width="1.5" d="M285.5,-726.73C276.87,-712.16 268.49,-695.19 264,-678.41 259.84,-662.85 258.91,-645.2 259.28,-629.78"/>
<polygon fill="green" stroke="green" stroke-width="1.5" points="262.79,-629.64 259.71,-619.51 255.79,-629.35 262.79,-629.64"/>
<text text-anchor="middle" x="291.5" y="-671.21" font-family="Arial" font-size="9.00">Yes</text>
<text text-anchor="middle" x="291.5" y="-661.21" font-family="Arial" font-size="9.00">(α consistent)</text>
</g>
<!-- refinement -->
<g id="node17" class="node">
<title>refinement</title>
<ellipse fill="#ff9800" stroke="black" stroke-width="2" cx="429" cy="-588.91" rx="67.35" ry="50.82"/>
<text text-anchor="middle" x="429" y="-602.91" font-family="Arial" font-size="10.00">REFINEMENT</text>
<text text-anchor="middle" x="429" y="-591.91" font-family="Arial" font-size="10.00">Adjust BV</text>
<text text-anchor="middle" x="429" y="-580.91" font-family="Arial" font-size="10.00">Parameters</text>
<text text-anchor="middle" x="429" y="-569.91" font-family="Arial" font-size="10.00">Re&#45;analyze</text>
</g>
<!-- bv_validate&#45;&gt;refinement -->
<g id="edge8" class="edge">
<title>bv_validate&#45;&gt;refinement</title>
<path fill="none" stroke="orange" stroke-width="1.5" d="M319.15,-710.84C323.12,-692.57 330.03,-673.23 342,-658.41 346.99,-652.23 351.37,-654.8 358,-650.41 364.99,-645.79 372.05,-640.56 378.88,-635.16"/>
<polygon fill="orange" stroke="orange" stroke-width="1.5" points="381.19,-637.79 386.76,-628.77 376.79,-632.35 381.19,-637.79"/>
<text text-anchor="middle" x="379" y="-671.21" font-family="Arial" font-size="9.00">No</text>
<text text-anchor="middle" x="379" y="-661.21" font-family="Arial" font-size="9.00">(Different kinetics)</text>
</g>
<!-- step2 -->
<g id="node9" class="node">
<title>step2</title>
<polygon fill="none" stroke="black" stroke-width="2" points="316.5,-501 209.5,-501 209.5,-440 316.5,-440 316.5,-501"/>
<text text-anchor="middle" x="263" y="-479" font-family="Arial" font-size="10.00">2. i₀ Calibration</text>
<text text-anchor="middle" x="263" y="-468" font-family="Arial" font-size="10.00">Exchange Current</text>
<text text-anchor="middle" x="263" y="-457" font-family="Arial" font-size="10.00">Scaling</text>
</g>
<!-- step1&#45;&gt;step2 -->
<g id="edge9" class="edge">
<title>step1&#45;&gt;step2</title>
<path fill="none" stroke="black" stroke-width="1.5" d="M263,-558.23C263,-544 263,-526.75 263,-511.39"/>
<polygon fill="black" stroke="black" stroke-width="1.5" points="266.5,-511.12 263,-501.12 259.5,-511.12 266.5,-511.12"/>
</g>
<!-- step3 -->
<g id="node10" class="node">
<title>step3</title>
<polygon fill="none" stroke="black" stroke-width="2" points="335.5,-403 220.5,-403 220.5,-342 335.5,-342 335.5,-403"/>
<text text-anchor="middle" x="278" y="-381" font-family="Arial" font-size="10.00">3. Kinetic Validation</text>
<text text-anchor="middle" x="278" y="-370" font-family="Arial" font-size="10.00">Transfer Coefficient</text>
<text text-anchor="middle" x="278" y="-359" font-family="Arial" font-size="10.00">Consistency Check</text>
</g>
<!-- step2&#45;&gt;step3 -->
<g id="edge10" class="edge">
<title>step2&#45;&gt;step3</title>
<path fill="none" stroke="black" stroke-width="1.5" d="M267.62,-439.91C268.95,-431.43 270.42,-422.04 271.82,-413.05"/>
<polygon fill="black" stroke="black" stroke-width="1.5" points="275.28,-413.57 273.37,-403.15 268.36,-412.49 275.28,-413.57"/>
</g>
<!-- step4 -->
<g id="node11" class="node">
<title>step4</title>
<polygon fill="none" stroke="black" stroke-width="2" points="336.5,-305 231.5,-305 231.5,-244 336.5,-244 336.5,-305"/>
<text text-anchor="middle" x="284" y="-283" font-family="Arial" font-size="10.00">4. Physical QC</text>
<text text-anchor="middle" x="284" y="-272" font-family="Arial" font-size="10.00">Parameter Range</text>
<text text-anchor="middle" x="284" y="-261" font-family="Arial" font-size="10.00">Validation</text>
</g>
<!-- step3&#45;&gt;step4 -->
<g id="edge11" class="edge">
<title>step3&#45;&gt;step4</title>
<path fill="none" stroke="black" stroke-width="1.5" d="M279.85,-341.91C280.37,-333.52 280.95,-324.24 281.51,-315.34"/>
<polygon fill="black" stroke="black" stroke-width="1.5" points="285.02,-315.35 282.15,-305.15 278.03,-314.92 285.02,-315.35"/>
</g>
<!-- scpi_bv -->
<g id="node12" class="node">
<title>scpi_bv</title>
<polygon fill="none" stroke="black" stroke-width="2" points="576.5,-186 465.5,-186 465.5,-114 576.5,-114 576.5,-186"/>
<text text-anchor="middle" x="521" y="-164" font-family="Arial" font-size="10.00">SCPI Commands</text>
<text text-anchor="middle" x="521" y="-153" font-family="Arial" font-size="10.00">:CAL:BV:E0:SET</text>
<text text-anchor="middle" x="521" y="-142" font-family="Arial" font-size="10.00">:CAL:BV:I0:RATIO</text>
<text text-anchor="middle" x="521" y="-131" font-family="Arial" font-size="10.00">:CAL:BV:APPLY</text>
</g>
<!-- step4&#45;&gt;scpi_bv -->
<g id="edge12" class="edge">
<title>step4&#45;&gt;scpi_bv</title>
<path fill="none" stroke="black" stroke-width="1.5" d="M336.6,-246.31C371.8,-228.12 418.38,-204.04 455.91,-184.64"/>
<polygon fill="black" stroke="black" stroke-width="1.5" points="457.97,-187.52 465.25,-179.82 454.76,-181.3 457.97,-187.52"/>
</g>
<!-- firmware_bv -->
<g id="node13" class="node">
<title>firmware_bv</title>
<polygon fill="none" stroke="black" stroke-width="2" points="593.5,-77 460.5,-77 460.5,-16 593.5,-16 593.5,-77"/>
<text text-anchor="middle" x="527" y="-55" font-family="Arial" font-size="10.00">Firmware Integration</text>
<text text-anchor="middle" x="527" y="-44" font-family="Arial" font-size="10.00">Real&#45;time BV correction</text>
<text text-anchor="middle" x="527" y="-33" font-family="Arial" font-size="10.00">Parameter storage</text>
</g>
<!-- scpi_bv&#45;&gt;firmware_bv -->
<g id="edge13" class="edge">
<title>scpi_bv&#45;&gt;firmware_bv</title>
<path fill="none" stroke="black" stroke-width="1.5" d="M523.08,-113.79C523.59,-105.23 524.13,-96.01 524.65,-87.26"/>
<polygon fill="black" stroke="black" stroke-width="1.5" points="528.14,-87.45 525.24,-77.26 521.16,-87.03 528.14,-87.45"/>
</g>
<!-- results -->
<g id="node14" class="node">
<title>results</title>
<polygon fill="#c8e6c9" stroke="black" stroke-width="2" points="697.5,-958.41 568.5,-958.41 568.5,-886.41 697.5,-886.41 697.5,-958.41"/>
<text text-anchor="middle" x="633" y="-936.41" font-family="Arial" font-size="10.00">Calibration Results</text>
<text text-anchor="middle" x="633" y="-925.41" font-family="Arial" font-size="10.00">E₀ offset: ±153mV</text>
<text text-anchor="middle" x="633" y="-914.41" font-family="Arial" font-size="10.00">i₀ ratio: 0.9009</text>
<text text-anchor="middle" x="633" y="-903.41" font-family="Arial" font-size="10.00">Physical validation: ✅</text>
</g>
<!-- firmware_bv&#45;&gt;results -->
<g id="edge14" class="edge">
<title>firmware_bv&#45;&gt;results</title>
<path fill="none" stroke="black" stroke-width="1.5" d="M593.88,-61.9C638.11,-75.8 688,-101.91 688,-149 688,-769.41 688,-769.41 688,-769.41 688,-807.27 672.73,-847.44 658.28,-876.97"/>
<polygon fill="black" stroke="black" stroke-width="1.5" points="655.02,-875.66 653.64,-886.16 661.27,-878.81 655.02,-875.66"/>
</g>
<!-- quality_check -->
<g id="node15" class="node">
<title>quality_check</title>
<polygon fill="#fff9c4" stroke="black" stroke-width="2" points="577,-840.41 494,-768.41 577,-696.41 660,-768.41 577,-840.41"/>
<text text-anchor="middle" x="577" y="-782.41" font-family="Arial" font-size="10.00">Quality</text>
<text text-anchor="middle" x="577" y="-771.41" font-family="Arial" font-size="10.00">Assessment</text>
<text text-anchor="middle" x="577" y="-760.41" font-family="Arial" font-size="10.00">Physically</text>
<text text-anchor="middle" x="577" y="-749.41" font-family="Arial" font-size="10.00">reasonable?</text>
</g>
<!-- results&#45;&gt;quality_check -->
<g id="edge15" class="edge">
<title>results&#45;&gt;quality_check</title>
<path fill="none" stroke="black" stroke-width="1.5" d="M620.01,-886.16C614.15,-870.25 607.04,-850.96 600.31,-832.68"/>
<polygon fill="black" stroke="black" stroke-width="1.5" points="603.57,-831.42 596.83,-823.24 597.01,-833.84 603.57,-831.42"/>
</g>
<!-- success -->
<g id="node16" class="node">
<title>success</title>
<ellipse fill="#4caf50" stroke="black" stroke-width="2" cx="587" cy="-588.91" rx="72.66" ry="50.82"/>
<text text-anchor="middle" x="587" y="-602.91" font-family="Arial" font-size="10.00" fill="white">SUCCESS</text>
<text text-anchor="middle" x="587" y="-591.91" font-family="Arial" font-size="10.00" fill="white">Physically&#45;based</text>
<text text-anchor="middle" x="587" y="-580.91" font-family="Arial" font-size="10.00" fill="white">Calibration</text>
<text text-anchor="middle" x="587" y="-569.91" font-family="Arial" font-size="10.00" fill="white">Complete</text>
</g>
<!-- quality_check&#45;&gt;success -->
<g id="edge16" class="edge">
<title>quality_check&#45;&gt;success</title>
<path fill="none" stroke="green" stroke-width="1.5" d="M580.82,-699.55C581.74,-683.25 582.72,-665.96 583.61,-650.04"/>
<polygon fill="green" stroke="green" stroke-width="1.5" points="587.12,-649.98 584.19,-639.8 580.13,-649.59 587.12,-649.98"/>
<text text-anchor="middle" x="602.5" y="-671.21" font-family="Arial" font-size="9.00">Yes</text>
<text text-anchor="middle" x="602.5" y="-661.21" font-family="Arial" font-size="9.00">(Physical)</text>
</g>
<!-- quality_check&#45;&gt;refinement -->
<g id="edge17" class="edge">
<title>quality_check&#45;&gt;refinement</title>
<path fill="none" stroke="orange" stroke-width="1.5" d="M542.3,-725.8C520.99,-700.24 493.56,-667.34 471.03,-640.32"/>
<polygon fill="orange" stroke="orange" stroke-width="1.5" points="473.6,-637.94 464.51,-632.5 468.23,-642.42 473.6,-637.94"/>
<text text-anchor="middle" x="524" y="-671.21" font-family="Arial" font-size="9.00">No</text>
<text text-anchor="middle" x="524" y="-661.21" font-family="Arial" font-size="9.00">(Unphysical)</text>
</g>
<!-- refinement&#45;&gt;bv_extract -->
<g id="edge18" class="edge">
<title>refinement&#45;&gt;bv_extract</title>
<path fill="none" stroke="black" stroke-width="1.5" stroke-dasharray="5,2" d="M435.76,-639.57C443.55,-712.54 450.18,-851.65 406,-958.41 398.06,-977.59 384.19,-995.45 370.32,-1010.03"/>
<polygon fill="black" stroke="black" stroke-width="1.5" points="367.63,-1007.77 363.1,-1017.35 372.61,-1012.69 367.63,-1007.77"/>
<text text-anchor="middle" x="443" y="-861.21" font-family="Arial" font-size="9.00">Retry</text>
</g>
<!-- bv_equations -->
<g id="node18" class="node">
<title>bv_equations</title>
<polygon fill="#f0f0f0" stroke="black" stroke-width="2" points="204.5,-1100.41 15.5,-1100.41 15.5,-995.41 210.5,-995.41 210.5,-1094.41 204.5,-1100.41"/>
<polyline fill="none" stroke="black" stroke-width="2" points="204.5,-1100.41 204.5,-1094.41 "/>
<polyline fill="none" stroke="black" stroke-width="2" points="210.5,-1094.41 204.5,-1094.41 "/>
<text text-anchor="middle" x="113" y="-1078.41" font-family="Arial" font-size="10.00">Butler&#45;Volmer Equations:</text>
<text text-anchor="middle" x="113" y="-1067.41" font-family="Arial" font-size="10.00">i = i₀[exp(αₐnFη/RT) &#45; exp(&#45;αᶜnFη/RT)]</text>
<text text-anchor="middle" x="113" y="-1056.41" font-family="Arial" font-size="10.00">η = E &#45; E₀</text>
<text text-anchor="middle" x="113" y="-1045.41" font-family="Arial" font-size="10.00">Physical Parameters:</text>
<text text-anchor="middle" x="113" y="-1034.41" font-family="Arial" font-size="10.00">• i₀: Exchange current</text>
<text text-anchor="middle" x="113" y="-1023.41" font-family="Arial" font-size="10.00">• E₀: Standard potential</text>
<text text-anchor="middle" x="113" y="-1012.41" font-family="Arial" font-size="10.00">• α: Transfer coefficient</text>
</g>
<!-- bv_equations&#45;&gt;bv_fit -->
<!-- applications -->
<g id="node19" class="node">
<title>applications</title>
<polygon fill="#f0f0f0" stroke="black" stroke-width="2" points="142,-630.41 0,-630.41 0,-547.41 148,-547.41 148,-624.41 142,-630.41"/>
<polyline fill="none" stroke="black" stroke-width="2" points="142,-630.41 142,-624.41 "/>
<polyline fill="none" stroke="black" stroke-width="2" points="148,-624.41 142,-624.41 "/>
<text text-anchor="middle" x="74" y="-608.41" font-family="Arial" font-size="10.00">BV Applications:</text>
<text text-anchor="middle" x="74" y="-597.41" font-family="Arial" font-size="10.00">• E₀ → Potential calibration</text>
<text text-anchor="middle" x="74" y="-586.41" font-family="Arial" font-size="10.00">• i₀ → Current scaling</text>
<text text-anchor="middle" x="74" y="-575.41" font-family="Arial" font-size="10.00">• α → Kinetic validation</text>
<text text-anchor="middle" x="74" y="-564.41" font-family="Arial" font-size="10.00">• Physical QC checks</text>
</g>
<!-- applications&#45;&gt;step2 -->
</g>
</svg>
