<?xml version="1.0" encoding="UTF-8" standalone="no"?>
<!DOCTYPE svg PUBLIC "-//W3C//DTD SVG 1.1//EN"
 "http://www.w3.org/Graphics/SVG/1.1/DTD/svg11.dtd">
<!-- Generated by graphviz version 2.43.0 (0)
 -->
<!-- Title: CalibrationWorkflow Pages: 1 -->
<svg width="200pt" height="904pt"
 viewBox="0.00 0.00 200.00 903.85" xmlns="http://www.w3.org/2000/svg" xmlns:xlink="http://www.w3.org/1999/xlink">
<g id="graph0" class="graph" transform="scale(1 1) rotate(0) translate(4 899.85)">
<title>CalibrationWorkflow</title>
<polygon fill="white" stroke="transparent" points="-4,4 -4,-899.85 196,-899.85 196,4 -4,4"/>
<!-- start -->
<g id="node1" class="node">
<title>start</title>
<ellipse fill="#e8f5e8" stroke="#d32f2f" stroke-width="2" cx="88" cy="-874.64" rx="44.6" ry="21.43"/>
<text text-anchor="middle" x="88" y="-877.64" font-family="Arial" font-size="10.00">Start</text>
<text text-anchor="middle" x="88" y="-866.64" font-family="Arial" font-size="10.00">Calibration</text>
</g>
<!-- ref_setup -->
<g id="node2" class="node">
<title>ref_setup</title>
<path fill="#f5f5f5" stroke="#d32f2f" stroke-width="2" d="M121,-816.43C121,-816.43 55,-816.43 55,-816.43 49,-816.43 43,-810.43 43,-804.43 43,-804.43 43,-787.43 43,-787.43 43,-781.43 49,-775.43 55,-775.43 55,-775.43 121,-775.43 121,-775.43 127,-775.43 133,-781.43 133,-787.43 133,-787.43 133,-804.43 133,-804.43 133,-810.43 127,-816.43 121,-816.43"/>
<text text-anchor="middle" x="88" y="-804.43" font-family="Arial" font-size="10.00">Setup Reference</text>
<text text-anchor="middle" x="88" y="-793.43" font-family="Arial" font-size="10.00">Instrument</text>
<text text-anchor="middle" x="88" y="-782.43" font-family="Arial" font-size="10.00">(PalmSens)</text>
</g>
<!-- start&#45;&gt;ref_setup -->
<g id="edge1" class="edge">
<title>start&#45;&gt;ref_setup</title>
<path fill="none" stroke="#666666" stroke-width="1.5" d="M88,-853.08C88,-845 88,-835.57 88,-826.77"/>
<polygon fill="#666666" stroke="#666666" stroke-width="1.5" points="91.5,-826.48 88,-816.48 84.5,-826.48 91.5,-826.48"/>
</g>
<!-- ref_measure -->
<g id="node3" class="node">
<title>ref_measure</title>
<path fill="#f5f5f5" stroke="#d32f2f" stroke-width="2" d="M119.5,-738.43C119.5,-738.43 56.5,-738.43 56.5,-738.43 50.5,-738.43 44.5,-732.43 44.5,-726.43 44.5,-726.43 44.5,-709.43 44.5,-709.43 44.5,-703.43 50.5,-697.43 56.5,-697.43 56.5,-697.43 119.5,-697.43 119.5,-697.43 125.5,-697.43 131.5,-703.43 131.5,-709.43 131.5,-709.43 131.5,-726.43 131.5,-726.43 131.5,-732.43 125.5,-738.43 119.5,-738.43"/>
<text text-anchor="middle" x="88" y="-726.43" font-family="Arial" font-size="10.00">Measure Known</text>
<text text-anchor="middle" x="88" y="-715.43" font-family="Arial" font-size="10.00">Standards</text>
<text text-anchor="middle" x="88" y="-704.43" font-family="Arial" font-size="10.00">(Multiple Points)</text>
</g>
<!-- ref_setup&#45;&gt;ref_measure -->
<g id="edge2" class="edge">
<title>ref_setup&#45;&gt;ref_measure</title>
<path fill="none" stroke="#666666" stroke-width="1.5" d="M88,-775.35C88,-767.2 88,-757.55 88,-748.56"/>
<polygon fill="#666666" stroke="#666666" stroke-width="1.5" points="91.5,-748.43 88,-738.43 84.5,-748.43 91.5,-748.43"/>
</g>
<!-- ref_data -->
<g id="node4" class="node">
<title>ref_data</title>
<path fill="#f5f5f5" stroke="#d32f2f" stroke-width="2" d="M86,-660.43C86,-660.43 14,-660.43 14,-660.43 8,-660.43 2,-654.43 2,-648.43 2,-648.43 2,-631.43 2,-631.43 2,-625.43 8,-619.43 14,-619.43 14,-619.43 86,-619.43 86,-619.43 92,-619.43 98,-625.43 98,-631.43 98,-631.43 98,-648.43 98,-648.43 98,-654.43 92,-660.43 86,-660.43"/>
<text text-anchor="middle" x="50" y="-648.43" font-family="Arial" font-size="10.00">Record Reference</text>
<text text-anchor="middle" x="50" y="-637.43" font-family="Arial" font-size="10.00">Data</text>
<text text-anchor="middle" x="50" y="-626.43" font-family="Arial" font-size="10.00">(V, I, Time)</text>
</g>
<!-- ref_measure&#45;&gt;ref_data -->
<g id="edge3" class="edge">
<title>ref_measure&#45;&gt;ref_data</title>
<path fill="none" stroke="#666666" stroke-width="1.5" d="M78.21,-697.35C73.96,-688.84 68.89,-678.71 64.23,-669.39"/>
<polygon fill="#666666" stroke="#666666" stroke-width="1.5" points="67.36,-667.81 59.75,-660.43 61.09,-670.94 67.36,-667.81"/>
</g>
<!-- stm32_setup -->
<g id="node5" class="node">
<title>stm32_setup</title>
<path fill="#f5f5f5" stroke="#d32f2f" stroke-width="2" d="M76.5,-582.43C76.5,-582.43 23.5,-582.43 23.5,-582.43 17.5,-582.43 11.5,-576.43 11.5,-570.43 11.5,-570.43 11.5,-558.43 11.5,-558.43 11.5,-552.43 17.5,-546.43 23.5,-546.43 23.5,-546.43 76.5,-546.43 76.5,-546.43 82.5,-546.43 88.5,-552.43 88.5,-558.43 88.5,-558.43 88.5,-570.43 88.5,-570.43 88.5,-576.43 82.5,-582.43 76.5,-582.43"/>
<text text-anchor="middle" x="50" y="-567.43" font-family="Arial" font-size="10.00">Setup STM32</text>
<text text-anchor="middle" x="50" y="-556.43" font-family="Arial" font-size="10.00">Potentiostat</text>
</g>
<!-- ref_data&#45;&gt;stm32_setup -->
<g id="edge4" class="edge">
<title>ref_data&#45;&gt;stm32_setup</title>
<path fill="none" stroke="#666666" stroke-width="1.5" d="M50,-619.23C50,-611.13 50,-601.61 50,-592.84"/>
<polygon fill="#666666" stroke="#666666" stroke-width="1.5" points="53.5,-592.67 50,-582.67 46.5,-592.67 53.5,-592.67"/>
</g>
<!-- stm32_measure -->
<g id="node6" class="node">
<title>stm32_measure</title>
<path fill="#f5f5f5" stroke="#d32f2f" stroke-width="2" d="M86,-509.43C86,-509.43 12,-509.43 12,-509.43 6,-509.43 0,-503.43 0,-497.43 0,-497.43 0,-480.43 0,-480.43 0,-474.43 6,-468.43 12,-468.43 12,-468.43 86,-468.43 86,-468.43 92,-468.43 98,-474.43 98,-480.43 98,-480.43 98,-497.43 98,-497.43 98,-503.43 92,-509.43 86,-509.43"/>
<text text-anchor="middle" x="49" y="-497.43" font-family="Arial" font-size="10.00">Measure Same</text>
<text text-anchor="middle" x="49" y="-486.43" font-family="Arial" font-size="10.00">Standards</text>
<text text-anchor="middle" x="49" y="-475.43" font-family="Arial" font-size="10.00">(Same Conditions)</text>
</g>
<!-- stm32_setup&#45;&gt;stm32_measure -->
<g id="edge5" class="edge">
<title>stm32_setup&#45;&gt;stm32_measure</title>
<path fill="none" stroke="#666666" stroke-width="1.5" d="M49.77,-546.38C49.66,-538.45 49.53,-528.79 49.41,-519.72"/>
<polygon fill="#666666" stroke="#666666" stroke-width="1.5" points="52.9,-519.43 49.27,-509.48 45.9,-519.53 52.9,-519.43"/>
</g>
<!-- stm32_data -->
<g id="node7" class="node">
<title>stm32_data</title>
<path fill="#f5f5f5" stroke="#d32f2f" stroke-width="2" d="M83.5,-422.43C83.5,-422.43 24.5,-422.43 24.5,-422.43 18.5,-422.43 12.5,-416.43 12.5,-410.43 12.5,-410.43 12.5,-393.43 12.5,-393.43 12.5,-387.43 18.5,-381.43 24.5,-381.43 24.5,-381.43 83.5,-381.43 83.5,-381.43 89.5,-381.43 95.5,-387.43 95.5,-393.43 95.5,-393.43 95.5,-410.43 95.5,-410.43 95.5,-416.43 89.5,-422.43 83.5,-422.43"/>
<text text-anchor="middle" x="54" y="-410.43" font-family="Arial" font-size="10.00">Record STM32</text>
<text text-anchor="middle" x="54" y="-399.43" font-family="Arial" font-size="10.00">Data</text>
<text text-anchor="middle" x="54" y="-388.43" font-family="Arial" font-size="10.00">(ADC Values)</text>
</g>
<!-- stm32_measure&#45;&gt;stm32_data -->
<g id="edge6" class="edge">
<title>stm32_measure&#45;&gt;stm32_data</title>
<path fill="none" stroke="#666666" stroke-width="1.5" d="M50.16,-468.21C50.78,-457.7 51.55,-444.54 52.24,-432.8"/>
<polygon fill="#666666" stroke="#666666" stroke-width="1.5" points="55.75,-432.72 52.85,-422.53 48.77,-432.31 55.75,-432.72"/>
</g>
<!-- compare -->
<g id="node8" class="node">
<title>compare</title>
<path fill="#f5f5f5" stroke="#d32f2f" stroke-width="2" d="M84.5,-344.43C84.5,-344.43 27.5,-344.43 27.5,-344.43 21.5,-344.43 15.5,-338.43 15.5,-332.43 15.5,-332.43 15.5,-320.43 15.5,-320.43 15.5,-314.43 21.5,-308.43 27.5,-308.43 27.5,-308.43 84.5,-308.43 84.5,-308.43 90.5,-308.43 96.5,-314.43 96.5,-320.43 96.5,-320.43 96.5,-332.43 96.5,-332.43 96.5,-338.43 90.5,-344.43 84.5,-344.43"/>
<text text-anchor="middle" x="56" y="-329.43" font-family="Arial" font-size="10.00">Compare</text>
<text text-anchor="middle" x="56" y="-318.43" font-family="Arial" font-size="10.00">Measurements</text>
</g>
<!-- stm32_data&#45;&gt;compare -->
<g id="edge7" class="edge">
<title>stm32_data&#45;&gt;compare</title>
<path fill="none" stroke="#666666" stroke-width="1.5" d="M54.54,-381.23C54.76,-373.13 55.02,-363.61 55.25,-354.84"/>
<polygon fill="#666666" stroke="#666666" stroke-width="1.5" points="58.76,-354.76 55.53,-344.67 51.76,-354.57 58.76,-354.76"/>
</g>
<!-- calculate -->
<g id="node9" class="node">
<title>calculate</title>
<path fill="#f5f5f5" stroke="#d32f2f" stroke-width="2" d="M82.5,-271.43C82.5,-271.43 43.5,-271.43 43.5,-271.43 37.5,-271.43 31.5,-265.43 31.5,-259.43 31.5,-259.43 31.5,-242.43 31.5,-242.43 31.5,-236.43 37.5,-230.43 43.5,-230.43 43.5,-230.43 82.5,-230.43 82.5,-230.43 88.5,-230.43 94.5,-236.43 94.5,-242.43 94.5,-242.43 94.5,-259.43 94.5,-259.43 94.5,-265.43 88.5,-271.43 82.5,-271.43"/>
<text text-anchor="middle" x="63" y="-259.43" font-family="Arial" font-size="10.00">Calculate</text>
<text text-anchor="middle" x="63" y="-248.43" font-family="Arial" font-size="10.00">Calibration</text>
<text text-anchor="middle" x="63" y="-237.43" font-family="Arial" font-size="10.00">Factors</text>
</g>
<!-- compare&#45;&gt;calculate -->
<g id="edge8" class="edge">
<title>compare&#45;&gt;calculate</title>
<path fill="none" stroke="#666666" stroke-width="1.5" d="M57.62,-308.38C58.38,-300.45 59.3,-290.79 60.16,-281.72"/>
<polygon fill="#666666" stroke="#666666" stroke-width="1.5" points="63.67,-281.77 61.14,-271.48 56.71,-281.1 63.67,-281.77"/>
</g>
<!-- validate -->
<g id="node10" class="node">
<title>validate</title>
<path fill="#f5f5f5" stroke="#d32f2f" stroke-width="2" d="M118,-193.43C118,-193.43 70,-193.43 70,-193.43 64,-193.43 58,-187.43 58,-181.43 58,-181.43 58,-164.43 58,-164.43 58,-158.43 64,-152.43 70,-152.43 70,-152.43 118,-152.43 118,-152.43 124,-152.43 130,-158.43 130,-164.43 130,-164.43 130,-181.43 130,-181.43 130,-187.43 124,-193.43 118,-193.43"/>
<text text-anchor="middle" x="94" y="-181.43" font-family="Arial" font-size="10.00">Validate</text>
<text text-anchor="middle" x="94" y="-170.43" font-family="Arial" font-size="10.00">Calibration</text>
<text text-anchor="middle" x="94" y="-159.43" font-family="Arial" font-size="10.00">(Test Points)</text>
</g>
<!-- calculate&#45;&gt;validate -->
<g id="edge9" class="edge">
<title>calculate&#45;&gt;validate</title>
<path fill="none" stroke="#666666" stroke-width="1.5" d="M70.98,-230.35C74.38,-222.02 78.42,-212.13 82.15,-202.97"/>
<polygon fill="#666666" stroke="#666666" stroke-width="1.5" points="85.51,-204.01 86.04,-193.43 79.03,-201.37 85.51,-204.01"/>
</g>
<!-- validate&#45;&gt;ref_measure -->
<g id="edge12" class="edge">
<title>validate&#45;&gt;ref_measure</title>
<path fill="none" stroke="#ff6b6b" stroke-width="1.5" stroke-dasharray="5,2" d="M107.39,-193.62C116.15,-208.44 126,-229.6 126,-249.93 126,-640.93 126,-640.93 126,-640.93 126,-657.99 118.24,-675.15 109.74,-688.83"/>
<polygon fill="#ff6b6b" stroke="#ff6b6b" stroke-width="1.5" points="106.74,-687.02 104.12,-697.29 112.57,-690.9 106.74,-687.02"/>
<text text-anchor="middle" x="159" y="-443.23" font-family="Arial" font-size="9.00">If validation fails</text>
</g>
<!-- store -->
<g id="node11" class="node">
<title>store</title>
<path fill="#f5f5f5" stroke="#d32f2f" stroke-width="2" d="M126.5,-115.43C126.5,-115.43 61.5,-115.43 61.5,-115.43 55.5,-115.43 49.5,-109.43 49.5,-103.43 49.5,-103.43 49.5,-91.43 49.5,-91.43 49.5,-85.43 55.5,-79.43 61.5,-79.43 61.5,-79.43 126.5,-79.43 126.5,-79.43 132.5,-79.43 138.5,-85.43 138.5,-91.43 138.5,-91.43 138.5,-103.43 138.5,-103.43 138.5,-109.43 132.5,-115.43 126.5,-115.43"/>
<text text-anchor="middle" x="94" y="-100.43" font-family="Arial" font-size="10.00">Store Calibration</text>
<text text-anchor="middle" x="94" y="-89.43" font-family="Arial" font-size="10.00">Coefficients</text>
</g>
<!-- validate&#45;&gt;store -->
<g id="edge10" class="edge">
<title>validate&#45;&gt;store</title>
<path fill="none" stroke="#666666" stroke-width="1.5" d="M94,-152.23C94,-144.13 94,-134.61 94,-125.84"/>
<polygon fill="#666666" stroke="#666666" stroke-width="1.5" points="97.5,-125.67 94,-115.67 90.5,-125.67 97.5,-125.67"/>
</g>
<!-- end -->
<g id="node12" class="node">
<title>end</title>
<ellipse fill="#ffe8e8" stroke="#d32f2f" stroke-width="2" cx="94" cy="-21.21" rx="44.6" ry="21.43"/>
<text text-anchor="middle" x="94" y="-24.21" font-family="Arial" font-size="10.00">Calibration</text>
<text text-anchor="middle" x="94" y="-13.21" font-family="Arial" font-size="10.00">Complete</text>
</g>
<!-- store&#45;&gt;end -->
<g id="edge11" class="edge">
<title>store&#45;&gt;end</title>
<path fill="none" stroke="#666666" stroke-width="1.5" d="M94,-79.21C94,-71.34 94,-61.76 94,-52.72"/>
<polygon fill="#666666" stroke="#666666" stroke-width="1.5" points="97.5,-52.49 94,-42.49 90.5,-52.49 97.5,-52.49"/>
</g>
</g>
</svg>
