<?xml version="1.0" encoding="UTF-8" standalone="no"?>
<!DOCTYPE svg PUBLIC "-//W3C//DTD SVG 1.1//EN"
 "http://www.w3.org/Graphics/SVG/1.1/DTD/svg11.dtd">
<!-- Generated by graphviz version 2.43.0 (0)
 -->
<!-- Title: EnhancedTransferCalibration Pages: 1 -->
<svg width="798pt" height="949pt"
 viewBox="0.00 0.00 797.78 948.68" xmlns="http://www.w3.org/2000/svg" xmlns:xlink="http://www.w3.org/1999/xlink">
<g id="graph0" class="graph" transform="scale(1 1) rotate(0) translate(4 944.68)">
<title>EnhancedTransferCalibration</title>
<polygon fill="white" stroke="transparent" points="-4,4 -4,-944.68 793.78,-944.68 793.78,4 -4,4"/>
<g id="clust1" class="cluster">
<title>cluster_instruments</title>
<polygon fill="#e8f5e8" stroke="#e8f5e8" points="189.78,-746.68 189.78,-857.68 499.78,-857.68 499.78,-746.68 189.78,-746.68"/>
<text text-anchor="middle" x="344.78" y="-842.48" font-family="Arial" font-size="14.00">Reference Instruments</text>
</g>
<g id="clust2" class="cluster">
<title>cluster_voltage_cal</title>
<polygon fill="#fff3e0" stroke="#fff3e0" points="93.78,-293.27 93.78,-727.68 275.78,-727.68 275.78,-293.27 93.78,-293.27"/>
<text text-anchor="middle" x="184.78" y="-712.48" font-family="Arial" font-size="14.00">Voltage Calibration Process</text>
</g>
<g id="clust3" class="cluster">
<title>cluster_current_cal</title>
<polygon fill="#e3f2fd" stroke="#e3f2fd" points="599.78,-293.27 599.78,-727.68 781.78,-727.68 781.78,-293.27 599.78,-293.27"/>
<text text-anchor="middle" x="690.78" y="-712.48" font-family="Arial" font-size="14.00">Current Calibration Process</text>
</g>
<!-- title -->
<g id="node1" class="node">
<title>title</title>
<text text-anchor="start" x="107.78" y="-916.48" font-family="Arial" font-weight="bold" font-size="14.00">Enhanced Multi&#45;Reference Transfer Calibration</text>
<text text-anchor="start" x="151.78" y="-902.48" font-family="Arial" font-size="14.00">Using Keisight 34461A + PalmSens</text>
</g>
<!-- keisight -->
<g id="node2" class="node">
<title>keisight</title>
<polygon fill="#ffeb3b" stroke="black" stroke-width="2" points="319.78,-826.68 197.78,-826.68 197.78,-754.68 319.78,-754.68 319.78,-826.68"/>
<text text-anchor="middle" x="258.78" y="-804.68" font-family="Arial" font-size="10.00">Keisight 34461A</text>
<text text-anchor="middle" x="258.78" y="-793.68" font-family="Arial" font-size="10.00">Precision Multimeter</text>
<text text-anchor="middle" x="258.78" y="-782.68" font-family="Arial" font-size="10.00">±0.0035% accuracy</text>
<text text-anchor="middle" x="258.78" y="-771.68" font-family="Arial" font-size="10.00">VOLTAGE Reference</text>
</g>
<!-- title&#45;&gt;keisight -->
<!-- volt_setup -->
<g id="node5" class="node">
<title>volt_setup</title>
<polygon fill="none" stroke="black" stroke-width="2" points="263.28,-696.68 132.28,-696.68 132.28,-635.68 263.28,-635.68 263.28,-696.68"/>
<text text-anchor="middle" x="197.78" y="-674.68" font-family="Arial" font-size="10.00">1. Setup Voltage Points</text>
<text text-anchor="middle" x="197.78" y="-663.68" font-family="Arial" font-size="10.00">0.1V to 0.8V</text>
<text text-anchor="middle" x="197.78" y="-652.68" font-family="Arial" font-size="10.00">8 calibration points</text>
</g>
<!-- keisight&#45;&gt;volt_setup -->
<g id="edge2" class="edge">
<title>keisight&#45;&gt;volt_setup</title>
<path fill="none" stroke="black" stroke-width="1.5" d="M241.3,-754.58C233.78,-739.47 224.96,-721.75 217.23,-706.23"/>
<polygon fill="black" stroke="black" stroke-width="1.5" points="220.17,-704.29 212.58,-696.9 213.9,-707.41 220.17,-704.29"/>
</g>
<!-- palmsens -->
<g id="node3" class="node">
<title>palmsens</title>
<polygon fill="#03a9f4" stroke="black" stroke-width="2" points="491.28,-826.68 338.28,-826.68 338.28,-754.68 491.28,-754.68 491.28,-826.68"/>
<text text-anchor="middle" x="414.78" y="-804.68" font-family="Arial" font-size="10.00">PalmSens EmStat</text>
<text text-anchor="middle" x="414.78" y="-793.68" font-family="Arial" font-size="10.00">Electrochemical Workstation</text>
<text text-anchor="middle" x="414.78" y="-782.68" font-family="Arial" font-size="10.00">Electrochemical expertise</text>
<text text-anchor="middle" x="414.78" y="-771.68" font-family="Arial" font-size="10.00">CURRENT Reference</text>
</g>
<!-- curr_setup -->
<g id="node9" class="node">
<title>curr_setup</title>
<polygon fill="none" stroke="black" stroke-width="2" points="747.28,-696.68 608.28,-696.68 608.28,-635.68 747.28,-635.68 747.28,-696.68"/>
<text text-anchor="middle" x="677.78" y="-674.68" font-family="Arial" font-size="10.00">5. Setup Solutions</text>
<text text-anchor="middle" x="677.78" y="-663.68" font-family="Arial" font-size="10.00">0.5&#45;5.0mM Ferricyanide</text>
<text text-anchor="middle" x="677.78" y="-652.68" font-family="Arial" font-size="10.00">Electrochemical standard</text>
</g>
<!-- palmsens&#45;&gt;curr_setup -->
<g id="edge7" class="edge">
<title>palmsens&#45;&gt;curr_setup</title>
<path fill="none" stroke="black" stroke-width="1.5" d="M490.15,-754.58C526.24,-737.77 569.27,-717.72 605.01,-701.07"/>
<polygon fill="black" stroke="black" stroke-width="1.5" points="606.82,-704.09 614.41,-696.7 603.87,-697.74 606.82,-704.09"/>
</g>
<!-- stm32 -->
<g id="node4" class="node">
<title>stm32</title>
<polygon fill="#ff9800" stroke="black" stroke-width="2" points="713.78,-826.68 601.78,-826.68 601.78,-754.68 713.78,-754.68 713.78,-826.68"/>
<text text-anchor="middle" x="657.78" y="-804.68" font-family="Arial" font-size="10.00">STM32 H743Poten</text>
<text text-anchor="middle" x="657.78" y="-793.68" font-family="Arial" font-size="10.00">Target Instrument</text>
<text text-anchor="middle" x="657.78" y="-782.68" font-family="Arial" font-size="10.00">Voltage + Current</text>
<text text-anchor="middle" x="657.78" y="-771.68" font-family="Arial" font-size="10.00">Calibration Applied</text>
</g>
<!-- stm32&#45;&gt;volt_setup -->
<g id="edge3" class="edge">
<title>stm32&#45;&gt;volt_setup</title>
<path fill="none" stroke="black" stroke-width="1.5" d="M601.62,-771.66C572.66,-762.97 536.62,-753.07 503.78,-746.68 429.59,-732.25 407.75,-747.39 334.78,-727.68 310.84,-721.21 285.72,-711.16 263.63,-701.1"/>
<polygon fill="black" stroke="black" stroke-width="1.5" points="264.9,-697.84 254.36,-696.8 261.96,-704.19 264.9,-697.84"/>
</g>
<!-- stm32&#45;&gt;curr_setup -->
<g id="edge8" class="edge">
<title>stm32&#45;&gt;curr_setup</title>
<path fill="none" stroke="black" stroke-width="1.5" d="M663.51,-754.58C665.93,-739.75 668.76,-722.42 671.26,-707.11"/>
<polygon fill="black" stroke="black" stroke-width="1.5" points="674.77,-707.33 672.93,-696.9 667.86,-706.2 674.77,-707.33"/>
</g>
<!-- volt_measure -->
<g id="node6" class="node">
<title>volt_measure</title>
<polygon fill="none" stroke="black" stroke-width="2" points="267.28,-578.27 106.28,-578.27 106.28,-517.27 267.28,-517.27 267.28,-578.27"/>
<text text-anchor="middle" x="186.78" y="-556.27" font-family="Arial" font-size="10.00">2. Simultaneous Measurement</text>
<text text-anchor="middle" x="186.78" y="-545.27" font-family="Arial" font-size="10.00">Keisight: Reference</text>
<text text-anchor="middle" x="186.78" y="-534.27" font-family="Arial" font-size="10.00">STM32: Target</text>
</g>
<!-- volt_setup&#45;&gt;volt_measure -->
<g id="edge4" class="edge">
<title>volt_setup&#45;&gt;volt_measure</title>
<path fill="none" stroke="black" stroke-width="1.5" d="M194.98,-635.5C193.63,-621.27 192,-604.02 190.55,-588.66"/>
<polygon fill="black" stroke="black" stroke-width="1.5" points="194.01,-588.02 189.58,-578.39 187.04,-588.67 194.01,-588.02"/>
</g>
<!-- volt_calc -->
<g id="node7" class="node">
<title>volt_calc</title>
<polygon fill="none" stroke="black" stroke-width="2" points="260.78,-469.27 124.78,-469.27 124.78,-408.27 260.78,-408.27 260.78,-469.27"/>
<text text-anchor="middle" x="192.78" y="-447.27" font-family="Arial" font-size="10.00">3. Calculate Coefficients</text>
<text text-anchor="middle" x="192.78" y="-436.27" font-family="Arial" font-size="10.00">Linear regression</text>
<text text-anchor="middle" x="192.78" y="-425.27" font-family="Arial" font-size="10.00">R² &gt; 0.999</text>
</g>
<!-- volt_measure&#45;&gt;volt_calc -->
<g id="edge5" class="edge">
<title>volt_measure&#45;&gt;volt_calc</title>
<path fill="none" stroke="black" stroke-width="1.5" d="M188.44,-517.25C189.09,-505.65 189.84,-492.15 190.54,-479.71"/>
<polygon fill="black" stroke="black" stroke-width="1.5" points="194.05,-479.74 191.11,-469.56 187.06,-479.35 194.05,-479.74"/>
</g>
<!-- volt_apply -->
<g id="node8" class="node">
<title>volt_apply</title>
<polygon fill="none" stroke="black" stroke-width="2" points="267.28,-351.27 128.28,-351.27 128.28,-301.27 267.28,-301.27 267.28,-351.27"/>
<text text-anchor="middle" x="197.78" y="-329.27" font-family="Arial" font-size="10.00">4. Apply to STM32</text>
<text text-anchor="middle" x="197.78" y="-318.27" font-family="Arial" font-size="10.00">SCPI: :CAL:VOLT:COEF</text>
</g>
<!-- volt_calc&#45;&gt;volt_apply -->
<g id="edge6" class="edge">
<title>volt_calc&#45;&gt;volt_apply</title>
<path fill="none" stroke="black" stroke-width="1.5" d="M194.12,-408.16C194.77,-393.85 195.55,-376.61 196.22,-361.72"/>
<polygon fill="black" stroke="black" stroke-width="1.5" points="199.74,-361.52 196.69,-351.37 192.74,-361.21 199.74,-361.52"/>
</g>
<!-- results -->
<g id="node14" class="node">
<title>results</title>
<polygon fill="#fff9c4" stroke="black" stroke-width="2" points="232.78,-264.27 152.78,-203.27 232.78,-142.27 312.78,-203.27 232.78,-264.27"/>
<text text-anchor="middle" x="232.78" y="-211.77" font-family="Arial" font-size="10.00">Calibration</text>
<text text-anchor="middle" x="232.78" y="-200.77" font-family="Arial" font-size="10.00">Results</text>
<text text-anchor="middle" x="232.78" y="-189.77" font-family="Arial" font-size="10.00">R² &gt; 0.995?</text>
</g>
<!-- volt_apply&#45;&gt;results -->
<g id="edge14" class="edge">
<title>volt_apply&#45;&gt;results</title>
<path fill="none" stroke="black" stroke-width="1.5" d="M204.78,-301.07C207.96,-290.08 211.87,-276.56 215.75,-263.14"/>
<polygon fill="black" stroke="black" stroke-width="1.5" points="219.14,-264.01 218.56,-253.43 212.42,-262.06 219.14,-264.01"/>
</g>
<!-- curr_measure -->
<g id="node10" class="node">
<title>curr_measure</title>
<polygon fill="none" stroke="black" stroke-width="2" points="740.28,-578.27 615.28,-578.27 615.28,-517.27 740.28,-517.27 740.28,-578.27"/>
<text text-anchor="middle" x="677.78" y="-556.27" font-family="Arial" font-size="10.00">6. CV Measurements</text>
<text text-anchor="middle" x="677.78" y="-545.27" font-family="Arial" font-size="10.00">PalmSens: Reference</text>
<text text-anchor="middle" x="677.78" y="-534.27" font-family="Arial" font-size="10.00">STM32: Target</text>
</g>
<!-- curr_setup&#45;&gt;curr_measure -->
<g id="edge9" class="edge">
<title>curr_setup&#45;&gt;curr_measure</title>
<path fill="none" stroke="black" stroke-width="1.5" d="M677.78,-635.5C677.78,-621.27 677.78,-604.02 677.78,-588.66"/>
<polygon fill="black" stroke="black" stroke-width="1.5" points="681.28,-588.39 677.78,-578.39 674.28,-588.39 681.28,-588.39"/>
</g>
<!-- curr_calc -->
<g id="node11" class="node">
<title>curr_calc</title>
<polygon fill="none" stroke="black" stroke-width="2" points="748.28,-469.27 611.28,-469.27 611.28,-408.27 748.28,-408.27 748.28,-469.27"/>
<text text-anchor="middle" x="679.78" y="-447.27" font-family="Arial" font-size="10.00">7. Extract Peak Currents</text>
<text text-anchor="middle" x="679.78" y="-436.27" font-family="Arial" font-size="10.00">Linear regression</text>
<text text-anchor="middle" x="679.78" y="-425.27" font-family="Arial" font-size="10.00">R² &gt; 0.99</text>
</g>
<!-- curr_measure&#45;&gt;curr_calc -->
<g id="edge10" class="edge">
<title>curr_measure&#45;&gt;curr_calc</title>
<path fill="none" stroke="black" stroke-width="1.5" d="M678.33,-517.25C678.55,-505.65 678.8,-492.15 679.04,-479.71"/>
<polygon fill="black" stroke="black" stroke-width="1.5" points="682.54,-479.63 679.22,-469.56 675.54,-479.5 682.54,-479.63"/>
</g>
<!-- curr_apply -->
<g id="node12" class="node">
<title>curr_apply</title>
<polygon fill="none" stroke="black" stroke-width="2" points="753.28,-351.27 608.28,-351.27 608.28,-301.27 753.28,-301.27 753.28,-351.27"/>
<text text-anchor="middle" x="680.78" y="-329.27" font-family="Arial" font-size="10.00">8. Apply to STM32</text>
<text text-anchor="middle" x="680.78" y="-318.27" font-family="Arial" font-size="10.00">SCPI: :CAL:CURR:COEF</text>
</g>
<!-- curr_calc&#45;&gt;curr_apply -->
<g id="edge11" class="edge">
<title>curr_calc&#45;&gt;curr_apply</title>
<path fill="none" stroke="black" stroke-width="1.5" d="M680.05,-408.16C680.18,-393.85 680.34,-376.61 680.47,-361.72"/>
<polygon fill="black" stroke="black" stroke-width="1.5" points="683.97,-361.41 680.56,-351.37 676.97,-361.34 683.97,-361.41"/>
</g>
<!-- curr_apply&#45;&gt;results -->
<g id="edge15" class="edge">
<title>curr_apply&#45;&gt;results</title>
<path fill="none" stroke="black" stroke-width="1.5" d="M607.81,-305.56C522.87,-282.62 383.7,-245.03 300.9,-222.66"/>
<polygon fill="black" stroke="black" stroke-width="1.5" points="301.65,-219.24 291.09,-220.01 299.83,-226 301.65,-219.24"/>
</g>
<!-- python_control -->
<g id="node13" class="node">
<title>python_control</title>
<ellipse fill="#4caf50" stroke="black" stroke-width="2" cx="436.78" cy="-666.18" rx="92.76" ry="50.82"/>
<text text-anchor="middle" x="436.78" y="-680.18" font-family="Arial" font-size="10.00">Python Control System</text>
<text text-anchor="middle" x="436.78" y="-669.18" font-family="Arial" font-size="10.00">Automated Calibration</text>
<text text-anchor="middle" x="436.78" y="-658.18" font-family="Arial" font-size="10.00">SCPI Communication</text>
<text text-anchor="middle" x="436.78" y="-647.18" font-family="Arial" font-size="10.00">Data Analysis</text>
</g>
<!-- python_control&#45;&gt;volt_measure -->
<g id="edge12" class="edge">
<title>python_control&#45;&gt;volt_measure</title>
<path fill="none" stroke="black" stroke-width="1.5" d="M366.81,-632.6C333.4,-617.04 293.45,-598.44 259.67,-582.71"/>
<polygon fill="black" stroke="black" stroke-width="1.5" points="260.87,-579.4 250.32,-578.35 257.91,-585.75 260.87,-579.4"/>
</g>
<!-- python_control&#45;&gt;curr_measure -->
<g id="edge13" class="edge">
<title>python_control&#45;&gt;curr_measure</title>
<path fill="none" stroke="black" stroke-width="1.5" d="M505.52,-631.98C537.3,-616.62 575.02,-598.41 607.04,-582.94"/>
<polygon fill="black" stroke="black" stroke-width="1.5" points="608.87,-585.94 616.35,-578.44 605.82,-579.64 608.87,-585.94"/>
</g>
<!-- success -->
<g id="node15" class="node">
<title>success</title>
<ellipse fill="#c8e6c9" stroke="black" stroke-width="2" cx="267.78" cy="-43.13" rx="94.09" ry="43.27"/>
<text text-anchor="middle" x="267.78" y="-51.63" font-family="Arial" font-size="10.00">SUCCESS</text>
<text text-anchor="middle" x="267.78" y="-40.63" font-family="Arial" font-size="10.00">Production Ready</text>
<text text-anchor="middle" x="267.78" y="-29.63" font-family="Arial" font-size="10.00">Traceability Established</text>
</g>
<!-- results&#45;&gt;success -->
<g id="edge16" class="edge">
<title>results&#45;&gt;success</title>
<path fill="none" stroke="green" stroke-width="1.5" d="M244.15,-150.93C248.02,-133.44 252.35,-113.87 256.23,-96.32"/>
<polygon fill="green" stroke="green" stroke-width="1.5" points="259.72,-96.76 258.46,-86.24 252.88,-95.25 259.72,-96.76"/>
<text text-anchor="middle" x="275.78" y="-117.07" font-family="Arial" font-size="9.00">Yes</text>
<text text-anchor="middle" x="275.78" y="-107.07" font-family="Arial" font-size="9.00">(Excellent)</text>
</g>
<!-- improvement -->
<g id="node16" class="node">
<title>improvement</title>
<ellipse fill="#ffe0b2" stroke="black" stroke-width="2" cx="77.78" cy="-43.13" rx="77.56" ry="43.27"/>
<text text-anchor="middle" x="77.78" y="-51.63" font-family="Arial" font-size="10.00">IMPROVEMENT</text>
<text text-anchor="middle" x="77.78" y="-40.63" font-family="Arial" font-size="10.00">Adjust Parameters</text>
<text text-anchor="middle" x="77.78" y="-29.63" font-family="Arial" font-size="10.00">Re&#45;run Calibration</text>
</g>
<!-- results&#45;&gt;improvement -->
<g id="edge17" class="edge">
<title>results&#45;&gt;improvement</title>
<path fill="none" stroke="orange" stroke-width="1.5" d="M198.77,-167.56C176.06,-144.39 145.98,-113.71 121.5,-88.73"/>
<polygon fill="orange" stroke="orange" stroke-width="1.5" points="123.92,-86.21 114.42,-81.52 118.92,-91.11 123.92,-86.21"/>
<text text-anchor="middle" x="182.28" y="-117.07" font-family="Arial" font-size="9.00">No</text>
<text text-anchor="middle" x="182.28" y="-107.07" font-family="Arial" font-size="9.00">(Needs work)</text>
</g>
<!-- improvement&#45;&gt;volt_setup -->
<g id="edge18" class="edge">
<title>improvement&#45;&gt;volt_setup</title>
<path fill="none" stroke="black" stroke-width="1.5" stroke-dasharray="5,2" d="M77.78,-86.42C77.78,-118.27 77.78,-163.01 77.78,-202.27 77.78,-548.77 77.78,-548.77 77.78,-548.77 77.78,-582.83 103,-610.13 130.32,-629.7"/>
<polygon fill="black" stroke="black" stroke-width="1.5" points="128.61,-632.77 138.84,-635.53 132.56,-627 128.61,-632.77"/>
<text text-anchor="middle" x="88.78" y="-372.07" font-family="Arial" font-size="9.00">Retry</text>
</g>
<!-- scpi_commands -->
<g id="node17" class="node">
<title>scpi_commands</title>
<polygon fill="#f0f0f0" stroke="black" stroke-width="2" points="445.78,-480.27 283.78,-480.27 283.78,-397.27 451.78,-397.27 451.78,-474.27 445.78,-480.27"/>
<polyline fill="none" stroke="black" stroke-width="2" points="445.78,-480.27 445.78,-474.27 "/>
<polyline fill="none" stroke="black" stroke-width="2" points="451.78,-474.27 445.78,-474.27 "/>
<text text-anchor="middle" x="367.78" y="-458.27" font-family="Arial" font-size="10.00">SCPI Commands:</text>
<text text-anchor="middle" x="367.78" y="-447.27" font-family="Arial" font-size="10.00">:CAL:VOLT:COEF slope,offset</text>
<text text-anchor="middle" x="367.78" y="-436.27" font-family="Arial" font-size="10.00">:CAL:CURR:COEF slope,offset</text>
<text text-anchor="middle" x="367.78" y="-425.27" font-family="Arial" font-size="10.00">*IDN? (Keisight)</text>
<text text-anchor="middle" x="367.78" y="-414.27" font-family="Arial" font-size="10.00">READ? (Keisight)</text>
</g>
<!-- scpi_commands&#45;&gt;volt_apply -->
<!-- performance -->
<g id="node18" class="node">
<title>performance</title>
<polygon fill="#f0f0f0" stroke="black" stroke-width="2" points="585.78,-474.77 469.78,-474.77 469.78,-402.77 591.78,-402.77 591.78,-468.77 585.78,-474.77"/>
<polyline fill="none" stroke="black" stroke-width="2" points="585.78,-474.77 585.78,-468.77 "/>
<polyline fill="none" stroke="black" stroke-width="2" points="591.78,-468.77 585.78,-468.77 "/>
<text text-anchor="middle" x="530.78" y="-452.77" font-family="Arial" font-size="10.00">Performance Targets:</text>
<text text-anchor="middle" x="530.78" y="-441.77" font-family="Arial" font-size="10.00">Voltage: R² &gt; 0.999</text>
<text text-anchor="middle" x="530.78" y="-430.77" font-family="Arial" font-size="10.00">Current: R² &gt; 0.99</text>
<text text-anchor="middle" x="530.78" y="-419.77" font-family="Arial" font-size="10.00">Overall: R² &gt; 0.995</text>
</g>
<!-- performance&#45;&gt;curr_apply -->
</g>
</svg>
