<?xml version="1.0" encoding="UTF-8" standalone="no"?>
<!DOCTYPE svg PUBLIC "-//W3C//DTD SVG 1.1//EN"
 "http://www.w3.org/Graphics/SVG/1.1/DTD/svg11.dtd">
<!-- Generated by graphviz version 2.43.0 (0)
 -->
<!-- Title: SystemArchitecture Pages: 1 -->
<svg width="301pt" height="553pt"
 viewBox="0.00 0.00 301.00 553.00" xmlns="http://www.w3.org/2000/svg" xmlns:xlink="http://www.w3.org/1999/xlink">
<g id="graph0" class="graph" transform="scale(1 1) rotate(0) translate(4 549)">
<title>SystemArchitecture</title>
<polygon fill="white" stroke="transparent" points="-4,4 -4,-549 297,-549 297,4 -4,4"/>
<g id="clust1" class="cluster">
<title>cluster_ui</title>
<polygon fill="#e3f2fd" stroke="#e3f2fd" points="8,-462 8,-537 275,-537 275,-462 8,-462"/>
<text text-anchor="middle" x="141.5" y="-521.8" font-family="Times,serif" font-size="14.00">User Interface Layer</text>
</g>
<g id="clust2" class="cluster">
<title>cluster_comm</title>
<polygon fill="#f3e5f5" stroke="#f3e5f5" points="95,-307 95,-454 285,-454 285,-307 95,-307"/>
<text text-anchor="middle" x="190" y="-438.8" font-family="Times,serif" font-size="14.00">Communication Layer</text>
</g>
<g id="clust3" class="cluster">
<title>cluster_hw</title>
<polygon fill="#fff3e0" stroke="#fff3e0" points="113,-8 113,-299 246,-299 246,-8 113,-8"/>
<text text-anchor="middle" x="179.5" y="-283.8" font-family="Times,serif" font-size="14.00">Hardware Layer</text>
</g>
<!-- desktop -->
<g id="node1" class="node">
<title>desktop</title>
<path fill="#f5f5f5" stroke="#d32f2f" stroke-width="2" d="M254.5,-506C254.5,-506 205.5,-506 205.5,-506 199.5,-506 193.5,-500 193.5,-494 193.5,-494 193.5,-482 193.5,-482 193.5,-476 199.5,-470 205.5,-470 205.5,-470 254.5,-470 254.5,-470 260.5,-470 266.5,-476 266.5,-482 266.5,-482 266.5,-494 266.5,-494 266.5,-500 260.5,-506 254.5,-506"/>
<text text-anchor="middle" x="230" y="-491" font-family="Arial" font-size="10.00">Desktop App</text>
<text text-anchor="middle" x="230" y="-480" font-family="Arial" font-size="10.00">(Python)</text>
</g>
<!-- scpi -->
<g id="node4" class="node">
<title>scpi</title>
<path fill="#f5f5f5" stroke="#d32f2f" stroke-width="2" d="M265,-423C265,-423 195,-423 195,-423 189,-423 183,-417 183,-411 183,-411 183,-399 183,-399 183,-393 189,-387 195,-387 195,-387 265,-387 265,-387 271,-387 277,-393 277,-399 277,-399 277,-411 277,-411 277,-417 271,-423 265,-423"/>
<text text-anchor="middle" x="230" y="-402.5" font-family="Arial" font-size="10.00">SCPI Commands</text>
</g>
<!-- desktop&#45;&gt;scpi -->
<g id="edge1" class="edge">
<title>desktop&#45;&gt;scpi</title>
<path fill="none" stroke="black" stroke-width="1.5" d="M230,-469.82C230,-459.19 230,-445.31 230,-433.2"/>
<polygon fill="black" stroke="black" stroke-width="1.5" points="233.5,-433.15 230,-423.15 226.5,-433.15 233.5,-433.15"/>
</g>
<!-- web -->
<g id="node2" class="node">
<title>web</title>
<path fill="#f5f5f5" stroke="#d32f2f" stroke-width="2" d="M163.5,-506C163.5,-506 110.5,-506 110.5,-506 104.5,-506 98.5,-500 98.5,-494 98.5,-494 98.5,-482 98.5,-482 98.5,-476 104.5,-470 110.5,-470 110.5,-470 163.5,-470 163.5,-470 169.5,-470 175.5,-476 175.5,-482 175.5,-482 175.5,-494 175.5,-494 175.5,-500 169.5,-506 163.5,-506"/>
<text text-anchor="middle" x="137" y="-491" font-family="Arial" font-size="10.00">Web Interface</text>
<text text-anchor="middle" x="137" y="-480" font-family="Arial" font-size="10.00">(Flask)</text>
</g>
<!-- api -->
<g id="node6" class="node">
<title>api</title>
<path fill="#f5f5f5" stroke="#d32f2f" stroke-width="2" d="M153,-423C153,-423 115,-423 115,-423 109,-423 103,-417 103,-411 103,-411 103,-399 103,-399 103,-393 109,-387 115,-387 115,-387 153,-387 153,-387 159,-387 165,-393 165,-399 165,-399 165,-411 165,-411 165,-417 159,-423 153,-423"/>
<text text-anchor="middle" x="134" y="-402.5" font-family="Arial" font-size="10.00">REST API</text>
</g>
<!-- web&#45;&gt;api -->
<g id="edge2" class="edge">
<title>web&#45;&gt;api</title>
<path fill="none" stroke="black" stroke-width="1.5" d="M136.36,-469.82C135.97,-459.19 135.46,-445.31 135.01,-433.2"/>
<polygon fill="black" stroke="black" stroke-width="1.5" points="138.5,-433.02 134.64,-423.15 131.51,-433.28 138.5,-433.02"/>
</g>
<!-- jupyter -->
<g id="node3" class="node">
<title>jupyter</title>
<path fill="#f5f5f5" stroke="#d32f2f" stroke-width="2" d="M68,-506C68,-506 28,-506 28,-506 22,-506 16,-500 16,-494 16,-494 16,-482 16,-482 16,-476 22,-470 28,-470 28,-470 68,-470 68,-470 74,-470 80,-476 80,-482 80,-482 80,-494 80,-494 80,-500 74,-506 68,-506"/>
<text text-anchor="middle" x="48" y="-491" font-family="Arial" font-size="10.00">Jupyter</text>
<text text-anchor="middle" x="48" y="-480" font-family="Arial" font-size="10.00">Notebooks</text>
</g>
<!-- jupyter&#45;&gt;api -->
<g id="edge3" class="edge">
<title>jupyter&#45;&gt;api</title>
<path fill="none" stroke="black" stroke-width="1.5" d="M66.24,-469.82C78.44,-458.33 94.67,-443.04 108.19,-430.31"/>
<polygon fill="black" stroke="black" stroke-width="1.5" points="110.91,-432.56 115.79,-423.15 106.11,-427.46 110.91,-432.56"/>
</g>
<!-- usb -->
<g id="node5" class="node">
<title>usb</title>
<path fill="#f5f5f5" stroke="#d32f2f" stroke-width="2" d="M188.5,-351C188.5,-351 147.5,-351 147.5,-351 141.5,-351 135.5,-345 135.5,-339 135.5,-339 135.5,-327 135.5,-327 135.5,-321 141.5,-315 147.5,-315 147.5,-315 188.5,-315 188.5,-315 194.5,-315 200.5,-321 200.5,-327 200.5,-327 200.5,-339 200.5,-339 200.5,-345 194.5,-351 188.5,-351"/>
<text text-anchor="middle" x="168" y="-330.5" font-family="Arial" font-size="10.00">USB/Serial</text>
</g>
<!-- scpi&#45;&gt;usb -->
<g id="edge4" class="edge">
<title>scpi&#45;&gt;usb</title>
<path fill="none" stroke="black" stroke-width="1.5" d="M214.67,-386.7C207.24,-378.3 198.18,-368.07 190.02,-358.86"/>
<polygon fill="black" stroke="black" stroke-width="1.5" points="192.4,-356.27 183.15,-351.1 187.16,-360.91 192.4,-356.27"/>
</g>
<!-- stm32_hw -->
<g id="node7" class="node">
<title>stm32_hw</title>
<path fill="#f5f5f5" stroke="#d32f2f" stroke-width="2" d="M196,-268C196,-268 140,-268 140,-268 134,-268 128,-262 128,-256 128,-256 128,-244 128,-244 128,-238 134,-232 140,-232 140,-232 196,-232 196,-232 202,-232 208,-238 208,-244 208,-244 208,-256 208,-256 208,-262 202,-268 196,-268"/>
<text text-anchor="middle" x="168" y="-253" font-family="Arial" font-size="10.00">STM32H743</text>
<text text-anchor="middle" x="168" y="-242" font-family="Arial" font-size="10.00">Microcontroller</text>
</g>
<!-- usb&#45;&gt;stm32_hw -->
<g id="edge6" class="edge">
<title>usb&#45;&gt;stm32_hw</title>
<path fill="none" stroke="black" stroke-width="1.5" d="M168,-314.82C168,-304.19 168,-290.31 168,-278.2"/>
<polygon fill="black" stroke="black" stroke-width="1.5" points="171.5,-278.15 168,-268.15 164.5,-278.15 171.5,-278.15"/>
</g>
<!-- api&#45;&gt;usb -->
<g id="edge5" class="edge">
<title>api&#45;&gt;usb</title>
<path fill="none" stroke="black" stroke-width="1.5" d="M142.4,-386.7C146.27,-378.73 150.95,-369.1 155.24,-360.26"/>
<polygon fill="black" stroke="black" stroke-width="1.5" points="158.47,-361.63 159.69,-351.1 152.17,-358.57 158.47,-361.63"/>
</g>
<!-- adc_hw -->
<g id="node8" class="node">
<title>adc_hw</title>
<path fill="#f5f5f5" stroke="#d32f2f" stroke-width="2" d="M198.5,-52C198.5,-52 147.5,-52 147.5,-52 141.5,-52 135.5,-46 135.5,-40 135.5,-40 135.5,-28 135.5,-28 135.5,-22 141.5,-16 147.5,-16 147.5,-16 198.5,-16 198.5,-16 204.5,-16 210.5,-22 210.5,-28 210.5,-28 210.5,-40 210.5,-40 210.5,-46 204.5,-52 198.5,-52"/>
<text text-anchor="middle" x="173" y="-37" font-family="Arial" font-size="10.00">ADC Circuits</text>
<text text-anchor="middle" x="173" y="-26" font-family="Arial" font-size="10.00">(V, I)</text>
</g>
<!-- stm32_hw&#45;&gt;adc_hw -->
<g id="edge7" class="edge">
<title>stm32_hw&#45;&gt;adc_hw</title>
<path fill="none" stroke="black" stroke-width="1.5" d="M156.8,-231.6C150.98,-221.6 144.39,-208.56 141,-196 128.5,-149.62 122.88,-133.91 137,-88 140.01,-78.22 145.51,-68.62 151.32,-60.33"/>
<polygon fill="black" stroke="black" stroke-width="1.5" points="154.19,-62.33 157.39,-52.23 148.59,-58.13 154.19,-62.33"/>
</g>
<!-- dac_hw -->
<g id="node9" class="node">
<title>dac_hw</title>
<path fill="#f5f5f5" stroke="#d32f2f" stroke-width="2" d="M208,-196C208,-196 162,-196 162,-196 156,-196 150,-190 150,-184 150,-184 150,-172 150,-172 150,-166 156,-160 162,-160 162,-160 208,-160 208,-160 214,-160 220,-166 220,-172 220,-172 220,-184 220,-184 220,-190 214,-196 208,-196"/>
<text text-anchor="middle" x="185" y="-181" font-family="Arial" font-size="10.00">DAC Circuit</text>
<text text-anchor="middle" x="185" y="-170" font-family="Arial" font-size="10.00">(Scan Gen)</text>
</g>
<!-- stm32_hw&#45;&gt;dac_hw -->
<g id="edge8" class="edge">
<title>stm32_hw&#45;&gt;dac_hw</title>
<path fill="none" stroke="black" stroke-width="1.5" d="M172.2,-231.7C174.1,-223.9 176.38,-214.51 178.48,-205.83"/>
<polygon fill="black" stroke="black" stroke-width="1.5" points="181.89,-206.65 180.85,-196.1 175.08,-205 181.89,-206.65"/>
</g>
<!-- cell_hw -->
<g id="node10" class="node">
<title>cell_hw</title>
<path fill="#f5f5f5" stroke="#d32f2f" stroke-width="2" d="M220,-124C220,-124 158,-124 158,-124 152,-124 146,-118 146,-112 146,-112 146,-100 146,-100 146,-94 152,-88 158,-88 158,-88 220,-88 220,-88 226,-88 232,-94 232,-100 232,-100 232,-112 232,-112 232,-118 226,-124 220,-124"/>
<text text-anchor="middle" x="189" y="-109" font-family="Arial" font-size="10.00">Electrochemical</text>
<text text-anchor="middle" x="189" y="-98" font-family="Arial" font-size="10.00">Cell</text>
</g>
<!-- dac_hw&#45;&gt;cell_hw -->
<g id="edge9" class="edge">
<title>dac_hw&#45;&gt;cell_hw</title>
<path fill="none" stroke="black" stroke-width="1.5" d="M185.99,-159.7C186.43,-151.98 186.96,-142.71 187.45,-134.11"/>
<polygon fill="black" stroke="black" stroke-width="1.5" points="190.95,-134.29 188.02,-124.1 183.96,-133.89 190.95,-134.29"/>
</g>
<!-- cell_hw&#45;&gt;adc_hw -->
<g id="edge10" class="edge">
<title>cell_hw&#45;&gt;adc_hw</title>
<path fill="none" stroke="black" stroke-width="1.5" d="M185.04,-87.7C183.28,-79.98 181.16,-70.71 179.2,-62.11"/>
<polygon fill="black" stroke="black" stroke-width="1.5" points="182.55,-61.07 176.91,-52.1 175.73,-62.63 182.55,-61.07"/>
</g>
</g>
</svg>
