<?xml version="1.0" encoding="UTF-8" standalone="no"?>
<!DOCTYPE svg PUBLIC "-//W3C//DTD SVG 1.1//EN"
 "http://www.w3.org/Graphics/SVG/1.1/DTD/svg11.dtd">
<!-- Generated by graphviz version 2.43.0 (0)
 -->
<!-- Title: TransferCalibrationWorkflow Pages: 1 -->
<svg width="739pt" height="1491pt"
 viewBox="0.00 0.00 738.66 1490.53" xmlns="http://www.w3.org/2000/svg" xmlns:xlink="http://www.w3.org/1999/xlink">
<g id="graph0" class="graph" transform="scale(1 1) rotate(0) translate(4 1486.53)">
<title>TransferCalibrationWorkflow</title>
<polygon fill="white" stroke="transparent" points="-4,4 -4,-1486.53 734.66,-1486.53 734.66,4 -4,4"/>
<g id="clust1" class="cluster">
<title>cluster_concept</title>
<polygon fill="#e3f2fd" stroke="#e3f2fd" points="29,-1040.27 29,-1369.27 237,-1369.27 237,-1040.27 29,-1040.27"/>
<text text-anchor="middle" x="133" y="-1354.07" font-family="Arial" font-size="14.00">Phase 1: Concept Development</text>
</g>
<g id="clust2" class="cluster">
<title>cluster_planning</title>
<polygon fill="#f3e5f5" stroke="#f3e5f5" points="8,-692.27 8,-1021.27 232,-1021.27 232,-692.27 8,-692.27"/>
<text text-anchor="middle" x="120" y="-1006.07" font-family="Arial" font-size="14.00">Phase 2: Implementation Planning</text>
</g>
<g id="clust3" class="cluster">
<title>cluster_poc</title>
<polygon fill="#fff3e0" stroke="#fff3e0" points="159,-562.27 159,-673.27 481,-673.27 481,-562.27 159,-562.27"/>
<text text-anchor="middle" x="320" y="-658.07" font-family="Arial" font-size="14.00">Phase 3: Proof of Concept</text>
</g>
<g id="clust4" class="cluster">
<title>cluster_hardware</title>
<polygon fill="#ffebee" stroke="#ffebee" points="431,-290.27 431,-524.27 661,-524.27 661,-290.27 431,-290.27"/>
<text text-anchor="middle" x="546" y="-509.07" font-family="Arial" font-size="14.00">Phase 4: Hardware Implementation</text>
</g>
<!-- start -->
<g id="node1" class="node">
<title>start</title>
<ellipse fill="#e8f5e8" stroke="black" stroke-width="2" cx="138" cy="-1439.4" rx="80.72" ry="43.27"/>
<text text-anchor="middle" x="138" y="-1447.9" font-family="Arial" font-size="10.00">Start:</text>
<text text-anchor="middle" x="138" y="-1436.9" font-family="Arial" font-size="10.00">Transfer Calibration</text>
<text text-anchor="middle" x="138" y="-1425.9" font-family="Arial" font-size="10.00">Project</text>
</g>
<!-- problem -->
<g id="node2" class="node">
<title>problem</title>
<polygon fill="none" stroke="black" stroke-width="2" points="227.5,-1338.27 48.5,-1338.27 48.5,-1266.27 227.5,-1266.27 227.5,-1338.27"/>
<text text-anchor="middle" x="138" y="-1316.27" font-family="Arial" font-size="10.00">Problem Analysis:</text>
<text text-anchor="middle" x="138" y="-1305.27" font-family="Arial" font-size="10.00">• STM32 vs PalmSens differences</text>
<text text-anchor="middle" x="138" y="-1294.27" font-family="Arial" font-size="10.00">• Systematic errors</text>
<text text-anchor="middle" x="138" y="-1283.27" font-family="Arial" font-size="10.00">• Calibration requirements</text>
</g>
<!-- start&#45;&gt;problem -->
<g id="edge1" class="edge">
<title>start&#45;&gt;problem</title>
<path fill="none" stroke="black" stroke-width="1.5" d="M138,-1396.01C138,-1381.05 138,-1364.15 138,-1348.93"/>
<polygon fill="black" stroke="black" stroke-width="1.5" points="141.5,-1348.7 138,-1338.7 134.5,-1348.7 141.5,-1348.7"/>
</g>
<!-- approaches -->
<g id="node3" class="node">
<title>approaches</title>
<polygon fill="none" stroke="black" stroke-width="2" points="217,-1229.27 85,-1229.27 85,-1157.27 217,-1157.27 217,-1229.27"/>
<text text-anchor="middle" x="151" y="-1207.27" font-family="Arial" font-size="10.00">Calibration Approaches:</text>
<text text-anchor="middle" x="151" y="-1196.27" font-family="Arial" font-size="10.00">• Raw Data ML</text>
<text text-anchor="middle" x="151" y="-1185.27" font-family="Arial" font-size="10.00">• Feature&#45;Based</text>
<text text-anchor="middle" x="151" y="-1174.27" font-family="Arial" font-size="10.00">• Expert Validation</text>
</g>
<!-- problem&#45;&gt;approaches -->
<g id="edge2" class="edge">
<title>problem&#45;&gt;approaches</title>
<path fill="none" stroke="black" stroke-width="1.5" d="M142.26,-1266.23C143.3,-1257.64 144.43,-1248.33 145.52,-1239.34"/>
<polygon fill="black" stroke="black" stroke-width="1.5" points="149,-1239.73 146.73,-1229.38 142.05,-1238.89 149,-1239.73"/>
</g>
<!-- framework -->
<g id="node4" class="node">
<title>framework</title>
<polygon fill="none" stroke="black" stroke-width="2" points="210.5,-1120.27 91.5,-1120.27 91.5,-1048.27 210.5,-1048.27 210.5,-1120.27"/>
<text text-anchor="middle" x="151" y="-1098.27" font-family="Arial" font-size="10.00">Framework Design:</text>
<text text-anchor="middle" x="151" y="-1087.27" font-family="Arial" font-size="10.00">• Python ML pipeline</text>
<text text-anchor="middle" x="151" y="-1076.27" font-family="Arial" font-size="10.00">• STM32 integration</text>
<text text-anchor="middle" x="151" y="-1065.27" font-family="Arial" font-size="10.00">• Web interface</text>
</g>
<!-- approaches&#45;&gt;framework -->
<g id="edge3" class="edge">
<title>approaches&#45;&gt;framework</title>
<path fill="none" stroke="black" stroke-width="1.5" d="M151,-1157.23C151,-1148.73 151,-1139.53 151,-1130.63"/>
<polygon fill="black" stroke="black" stroke-width="1.5" points="154.5,-1130.38 151,-1120.38 147.5,-1130.38 154.5,-1130.38"/>
</g>
<!-- stm32_analysis -->
<g id="node5" class="node">
<title>stm32_analysis</title>
<polygon fill="none" stroke="black" stroke-width="2" points="224,-990.27 78,-990.27 78,-918.27 224,-918.27 224,-990.27"/>
<text text-anchor="middle" x="151" y="-968.27" font-family="Arial" font-size="10.00">STM32 Firmware Analysis:</text>
<text text-anchor="middle" x="151" y="-957.27" font-family="Arial" font-size="10.00">• Existing calibration vars</text>
<text text-anchor="middle" x="151" y="-946.27" font-family="Arial" font-size="10.00">• SCPI commands</text>
<text text-anchor="middle" x="151" y="-935.27" font-family="Arial" font-size="10.00">• Hardware interfaces</text>
</g>
<!-- framework&#45;&gt;stm32_analysis -->
<g id="edge4" class="edge">
<title>framework&#45;&gt;stm32_analysis</title>
<path fill="none" stroke="black" stroke-width="1.5" d="M151,-1047.95C151,-1033.4 151,-1016.36 151,-1000.88"/>
<polygon fill="black" stroke="black" stroke-width="1.5" points="154.5,-1000.47 151,-990.47 147.5,-1000.47 154.5,-1000.47"/>
</g>
<!-- python_system -->
<g id="node6" class="node">
<title>python_system</title>
<polygon fill="none" stroke="black" stroke-width="2" points="220.5,-881.27 87.5,-881.27 87.5,-809.27 220.5,-809.27 220.5,-881.27"/>
<text text-anchor="middle" x="154" y="-859.27" font-family="Arial" font-size="10.00">Python System Design:</text>
<text text-anchor="middle" x="154" y="-848.27" font-family="Arial" font-size="10.00">• Feature extraction</text>
<text text-anchor="middle" x="154" y="-837.27" font-family="Arial" font-size="10.00">• ML calibration models</text>
<text text-anchor="middle" x="154" y="-826.27" font-family="Arial" font-size="10.00">• Expert validation UI</text>
</g>
<!-- stm32_analysis&#45;&gt;python_system -->
<g id="edge5" class="edge">
<title>stm32_analysis&#45;&gt;python_system</title>
<path fill="none" stroke="black" stroke-width="1.5" d="M151.98,-918.23C152.22,-909.73 152.48,-900.53 152.73,-891.63"/>
<polygon fill="black" stroke="black" stroke-width="1.5" points="156.23,-891.48 153.02,-881.38 149.24,-891.28 156.23,-891.48"/>
</g>
<!-- integration -->
<g id="node7" class="node">
<title>integration</title>
<polygon fill="none" stroke="black" stroke-width="2" points="220.5,-772.27 93.5,-772.27 93.5,-700.27 220.5,-700.27 220.5,-772.27"/>
<text text-anchor="middle" x="157" y="-750.27" font-family="Arial" font-size="10.00">Integration Strategy:</text>
<text text-anchor="middle" x="157" y="-739.27" font-family="Arial" font-size="10.00">• SCPI protocols</text>
<text text-anchor="middle" x="157" y="-728.27" font-family="Arial" font-size="10.00">• Flash storage</text>
<text text-anchor="middle" x="157" y="-717.27" font-family="Arial" font-size="10.00">• Real&#45;time application</text>
</g>
<!-- python_system&#45;&gt;integration -->
<g id="edge6" class="edge">
<title>python_system&#45;&gt;integration</title>
<path fill="none" stroke="black" stroke-width="1.5" d="M154.98,-809.23C155.22,-800.73 155.48,-791.53 155.73,-782.63"/>
<polygon fill="black" stroke="black" stroke-width="1.5" points="159.23,-782.48 156.02,-772.38 152.24,-782.28 159.23,-782.48"/>
</g>
<!-- math_test -->
<g id="node8" class="node">
<title>math_test</title>
<polygon fill="none" stroke="black" stroke-width="2" points="309,-642.27 167,-642.27 167,-570.27 309,-570.27 309,-642.27"/>
<text text-anchor="middle" x="238" y="-620.27" font-family="Arial" font-size="10.00">Mathematical Validation:</text>
<text text-anchor="middle" x="238" y="-609.27" font-family="Arial" font-size="10.00">• R² = 0.993</text>
<text text-anchor="middle" x="238" y="-598.27" font-family="Arial" font-size="10.00">• 3.6% error</text>
<text text-anchor="middle" x="238" y="-587.27" font-family="Arial" font-size="10.00">• 90% success probability</text>
</g>
<!-- integration&#45;&gt;math_test -->
<g id="edge7" class="edge">
<title>integration&#45;&gt;math_test</title>
<path fill="none" stroke="black" stroke-width="1.5" d="M179.35,-699.95C188.91,-684.84 200.17,-667.04 210.26,-651.1"/>
<polygon fill="black" stroke="black" stroke-width="1.5" points="213.34,-652.79 215.72,-642.47 207.42,-649.05 213.34,-652.79"/>
</g>
<!-- decision1 -->
<g id="node12" class="node">
<title>decision1</title>
<polygon fill="#fff9c4" stroke="black" stroke-width="2" points="238,-507.27 167,-457.27 238,-407.27 309,-457.27 238,-507.27"/>
<text text-anchor="middle" x="238" y="-460.27" font-family="Arial" font-size="10.00">Math Test</text>
<text text-anchor="middle" x="238" y="-449.27" font-family="Arial" font-size="10.00">Passed?</text>
</g>
<!-- math_test&#45;&gt;decision1 -->
<g id="edge8" class="edge">
<title>math_test&#45;&gt;decision1</title>
<path fill="none" stroke="black" stroke-width="1.5" d="M238,-570.06C238,-554.37 238,-535.44 238,-517.66"/>
<polygon fill="black" stroke="black" stroke-width="1.5" points="241.5,-517.36 238,-507.36 234.5,-517.36 241.5,-517.36"/>
</g>
<!-- synthetic_test -->
<g id="node9" class="node">
<title>synthetic_test</title>
<polygon fill="none" stroke="black" stroke-width="2" points="473,-642.27 327,-642.27 327,-570.27 473,-570.27 473,-642.27"/>
<text text-anchor="middle" x="400" y="-620.27" font-family="Arial" font-size="10.00">Synthetic Testing:</text>
<text text-anchor="middle" x="400" y="-609.27" font-family="Arial" font-size="10.00">• Simulated STM32 errors</text>
<text text-anchor="middle" x="400" y="-598.27" font-family="Arial" font-size="10.00">• ML calibration application</text>
<text text-anchor="middle" x="400" y="-587.27" font-family="Arial" font-size="10.00">• Performance validation</text>
</g>
<!-- firmware_mod -->
<g id="node10" class="node">
<title>firmware_mod</title>
<polygon fill="none" stroke="black" stroke-width="2" points="599.5,-493.27 440.5,-493.27 440.5,-421.27 599.5,-421.27 599.5,-493.27"/>
<text text-anchor="middle" x="520" y="-471.27" font-family="Arial" font-size="10.00">Firmware Modifications:</text>
<text text-anchor="middle" x="520" y="-460.27" font-family="Arial" font-size="10.00">• Add calibration structures</text>
<text text-anchor="middle" x="520" y="-449.27" font-family="Arial" font-size="10.00">• Implement SCPI commands</text>
<text text-anchor="middle" x="520" y="-438.27" font-family="Arial" font-size="10.00">• Real&#45;time application</text>
</g>
<!-- synthetic_test&#45;&gt;firmware_mod -->
<g id="edge11" class="edge">
<title>synthetic_test&#45;&gt;firmware_mod</title>
<path fill="none" stroke="black" stroke-width="1.5" d="M428.74,-570.06C445.6,-549.4 467.03,-523.16 484.88,-501.29"/>
<polygon fill="black" stroke="black" stroke-width="1.5" points="487.67,-503.4 491.28,-493.44 482.25,-498.98 487.67,-503.4"/>
</g>
<!-- hardware_test -->
<g id="node11" class="node">
<title>hardware_test</title>
<polygon fill="none" stroke="black" stroke-width="2" points="575,-370.27 439,-370.27 439,-298.27 575,-298.27 575,-370.27"/>
<text text-anchor="middle" x="507" y="-348.27" font-family="Arial" font-size="10.00">Hardware Testing:</text>
<text text-anchor="middle" x="507" y="-337.27" font-family="Arial" font-size="10.00">• Standard solutions</text>
<text text-anchor="middle" x="507" y="-326.27" font-family="Arial" font-size="10.00">• Multiple concentrations</text>
<text text-anchor="middle" x="507" y="-315.27" font-family="Arial" font-size="10.00">• Real sample validation</text>
</g>
<!-- firmware_mod&#45;&gt;hardware_test -->
<g id="edge12" class="edge">
<title>firmware_mod&#45;&gt;hardware_test</title>
<path fill="none" stroke="black" stroke-width="1.5" d="M516.2,-420.94C514.84,-408.27 513.29,-393.8 511.85,-380.41"/>
<polygon fill="black" stroke="black" stroke-width="1.5" points="515.33,-379.99 510.78,-370.43 508.37,-380.74 515.33,-379.99"/>
</g>
<!-- decision2 -->
<g id="node13" class="node">
<title>decision2</title>
<polygon fill="#fff9c4" stroke="black" stroke-width="2" points="497,-242.27 405,-192.27 497,-142.27 589,-192.27 497,-242.27"/>
<text text-anchor="middle" x="497" y="-195.27" font-family="Arial" font-size="10.00">Hardware Test</text>
<text text-anchor="middle" x="497" y="-184.27" font-family="Arial" font-size="10.00">Successful?</text>
</g>
<!-- hardware_test&#45;&gt;decision2 -->
<g id="edge13" class="edge">
<title>hardware_test&#45;&gt;decision2</title>
<path fill="none" stroke="black" stroke-width="1.5" d="M504.48,-297.94C503.46,-283.65 502.25,-266.79 501.11,-250.82"/>
<polygon fill="black" stroke="black" stroke-width="1.5" points="504.58,-250.21 500.37,-240.49 497.59,-250.71 504.58,-250.21"/>
</g>
<!-- decision1&#45;&gt;synthetic_test -->
<g id="edge9" class="edge">
<title>decision1&#45;&gt;synthetic_test</title>
<path fill="none" stroke="black" stroke-width="1.5" d="M268.65,-486.08C292.64,-507.85 326.4,-538.48 353.69,-563.24"/>
<polygon fill="black" stroke="black" stroke-width="1.5" points="351.44,-565.93 361.2,-570.06 356.14,-560.74 351.44,-565.93"/>
<text text-anchor="middle" x="353.5" y="-545.07" font-family="Arial" font-size="9.00">Yes</text>
<text text-anchor="middle" x="353.5" y="-535.07" font-family="Arial" font-size="9.00">(&gt;80%)</text>
</g>
<!-- failure -->
<g id="node16" class="node">
<title>failure</title>
<ellipse fill="#ffcdd2" stroke="black" stroke-width="2" cx="295" cy="-43.13" rx="67.35" ry="43.27"/>
<text text-anchor="middle" x="295" y="-51.63" font-family="Arial" font-size="10.00">Failure:</text>
<text text-anchor="middle" x="295" y="-40.63" font-family="Arial" font-size="10.00">Requires Major</text>
<text text-anchor="middle" x="295" y="-29.63" font-family="Arial" font-size="10.00">Revision</text>
</g>
<!-- decision1&#45;&gt;failure -->
<g id="edge10" class="edge">
<title>decision1&#45;&gt;failure</title>
<path fill="none" stroke="red" stroke-width="1.5" d="M244.21,-411.38C254.85,-334.45 276.51,-177.85 287.79,-96.24"/>
<polygon fill="red" stroke="red" stroke-width="1.5" points="291.28,-96.57 289.18,-86.19 284.35,-95.62 291.28,-96.57"/>
<text text-anchor="middle" x="279.5" y="-273.07" font-family="Arial" font-size="9.00">No</text>
<text text-anchor="middle" x="279.5" y="-263.07" font-family="Arial" font-size="9.00">(&lt;50%)</text>
</g>
<!-- success -->
<g id="node14" class="node">
<title>success</title>
<ellipse fill="#c8e6c9" stroke="black" stroke-width="2" cx="655" cy="-43.13" rx="75.82" ry="43.27"/>
<text text-anchor="middle" x="655" y="-51.63" font-family="Arial" font-size="10.00">Success:</text>
<text text-anchor="middle" x="655" y="-40.63" font-family="Arial" font-size="10.00">Production Ready</text>
<text text-anchor="middle" x="655" y="-29.63" font-family="Arial" font-size="10.00">System</text>
</g>
<!-- decision2&#45;&gt;success -->
<g id="edge14" class="edge">
<title>decision2&#45;&gt;success</title>
<path fill="none" stroke="green" stroke-width="1.5" d="M530.51,-160.06C553.25,-138.89 583.62,-110.61 608.67,-87.28"/>
<polygon fill="green" stroke="green" stroke-width="1.5" points="611.32,-89.59 616.25,-80.21 606.55,-84.47 611.32,-89.59"/>
<text text-anchor="middle" x="609" y="-117.07" font-family="Arial" font-size="9.00">Excellent</text>
<text text-anchor="middle" x="609" y="-107.07" font-family="Arial" font-size="9.00">(&gt;90%)</text>
</g>
<!-- partial -->
<g id="node15" class="node">
<title>partial</title>
<ellipse fill="#ffe0b2" stroke="black" stroke-width="2" cx="484" cy="-43.13" rx="77.56" ry="43.27"/>
<text text-anchor="middle" x="484" y="-51.63" font-family="Arial" font-size="10.00">Partial Success:</text>
<text text-anchor="middle" x="484" y="-40.63" font-family="Arial" font-size="10.00">Limited Application</text>
<text text-anchor="middle" x="484" y="-29.63" font-family="Arial" font-size="10.00">Scope</text>
</g>
<!-- decision2&#45;&gt;partial -->
<g id="edge15" class="edge">
<title>decision2&#45;&gt;partial</title>
<path fill="none" stroke="orange" stroke-width="1.5" d="M492.85,-144.31C491.51,-129.13 490.01,-112.21 488.64,-96.65"/>
<polygon fill="orange" stroke="orange" stroke-width="1.5" points="492.12,-96.32 487.76,-86.66 485.15,-96.93 492.12,-96.32"/>
<text text-anchor="middle" x="509.5" y="-117.07" font-family="Arial" font-size="9.00">Good</text>
<text text-anchor="middle" x="509.5" y="-107.07" font-family="Arial" font-size="9.00">(70&#45;90%)</text>
</g>
<!-- decision2&#45;&gt;failure -->
<g id="edge16" class="edge">
<title>decision2&#45;&gt;failure</title>
<path fill="none" stroke="red" stroke-width="1.5" d="M458.05,-162.9C426.42,-139.86 381.54,-107.17 346.87,-81.91"/>
<polygon fill="red" stroke="red" stroke-width="1.5" points="348.88,-79.05 338.74,-75.99 344.76,-84.71 348.88,-79.05"/>
<text text-anchor="middle" x="417.5" y="-117.07" font-family="Arial" font-size="9.00">Poor</text>
<text text-anchor="middle" x="417.5" y="-107.07" font-family="Arial" font-size="9.00">(&lt;70%)</text>
</g>
<!-- week1 -->
<g id="node17" class="node">
<title>week1</title>
<polygon fill="#f0f0f0" stroke="black" stroke-width="2" points="314.5,-1332.77 245.5,-1332.77 245.5,-1271.77 320.5,-1271.77 320.5,-1326.77 314.5,-1332.77"/>
<polyline fill="none" stroke="black" stroke-width="2" points="314.5,-1332.77 314.5,-1326.77 "/>
<polyline fill="none" stroke="black" stroke-width="2" points="320.5,-1326.77 314.5,-1326.77 "/>
<text text-anchor="middle" x="283" y="-1310.77" font-family="Arial" font-size="10.00">Week 1&#45;2:</text>
<text text-anchor="middle" x="283" y="-1299.77" font-family="Arial" font-size="10.00">Concept &amp;</text>
<text text-anchor="middle" x="283" y="-1288.77" font-family="Arial" font-size="10.00">Planning</text>
</g>
<!-- week1&#45;&gt;approaches -->
<!-- week3 -->
<g id="node18" class="node">
<title>week3</title>
<polygon fill="#f0f0f0" stroke="black" stroke-width="2" points="299.5,-766.77 240.5,-766.77 240.5,-705.77 305.5,-705.77 305.5,-760.77 299.5,-766.77"/>
<polyline fill="none" stroke="black" stroke-width="2" points="299.5,-766.77 299.5,-760.77 "/>
<polyline fill="none" stroke="black" stroke-width="2" points="305.5,-760.77 299.5,-760.77 "/>
<text text-anchor="middle" x="273" y="-744.77" font-family="Arial" font-size="10.00">Week 3:</text>
<text text-anchor="middle" x="273" y="-733.77" font-family="Arial" font-size="10.00">Proof of</text>
<text text-anchor="middle" x="273" y="-722.77" font-family="Arial" font-size="10.00">Concept</text>
</g>
<!-- week3&#45;&gt;math_test -->
<!-- week4 -->
<g id="node19" class="node">
<title>week4</title>
<polygon fill="#f0f0f0" stroke="black" stroke-width="2" points="416.5,-487.77 327.5,-487.77 327.5,-426.77 422.5,-426.77 422.5,-481.77 416.5,-487.77"/>
<polyline fill="none" stroke="black" stroke-width="2" points="416.5,-487.77 416.5,-481.77 "/>
<polyline fill="none" stroke="black" stroke-width="2" points="422.5,-481.77 416.5,-481.77 "/>
<text text-anchor="middle" x="375" y="-465.77" font-family="Arial" font-size="10.00">Week 4&#45;6:</text>
<text text-anchor="middle" x="375" y="-454.77" font-family="Arial" font-size="10.00">Implementation</text>
<text text-anchor="middle" x="375" y="-443.77" font-family="Arial" font-size="10.00">&amp; Testing</text>
</g>
<!-- week4&#45;&gt;hardware_test -->
</g>
</svg>
