<?xml version="1.0" encoding="UTF-8" standalone="no"?>
<!DOCTYPE svg PUBLIC "-//W3C//DTD SVG 1.1//EN"
 "http://www.w3.org/Graphics/SVG/1.1/DTD/svg11.dtd">
<!-- Generated by graphviz version 2.43.0 (0)
 -->
<!-- Title: TransferCalibration Pages: 1 -->
<svg width="264pt" height="479pt"
 viewBox="0.00 0.00 263.50 479.00" xmlns="http://www.w3.org/2000/svg" xmlns:xlink="http://www.w3.org/1999/xlink">
<g id="graph0" class="graph" transform="scale(1 1) rotate(0) translate(4 475)">
<title>TransferCalibration</title>
<polygon fill="white" stroke="transparent" points="-4,4 -4,-475 259.5,-475 259.5,4 -4,4"/>
<!-- reference -->
<g id="node1" class="node">
<title>reference</title>
<path fill="#f8f8f8" stroke="#d32f2f" stroke-width="2" d="M233,-471C233,-471 155,-471 155,-471 149,-471 143,-465 143,-459 143,-459 143,-342 143,-342 143,-336 149,-330 155,-330 155,-330 233,-330 233,-330 239,-330 245,-336 245,-342 245,-342 245,-459 245,-459 245,-465 239,-471 233,-471"/>
<text text-anchor="middle" x="194" y="-440.2" font-family="Arial" font-size="11.00">Reference</text>
<text text-anchor="middle" x="194" y="-428.2" font-family="Arial" font-size="11.00">Instrument</text>
<text text-anchor="start" x="165" y="-416.2" font-family="Arial" font-size="11.00">(PalmSens)</text>
<text text-anchor="start" x="165" y="-391.2" font-family="Arial" font-size="11.00">• Calibrated</text>
<text text-anchor="start" x="165" y="-379.2" font-family="Arial" font-size="11.00">• Traceable</text>
<text text-anchor="start" x="165" y="-367.2" font-family="Arial" font-size="11.00">• Validated</text>
<text text-anchor="start" x="165" y="-355.2" font-family="Arial" font-size="11.00">• $$$</text>
</g>
<!-- stm32 -->
<g id="node2" class="node">
<title>stm32</title>
<path fill="#f8f8f8" stroke="#d32f2f" stroke-width="2" d="M235,-294C235,-294 153,-294 153,-294 147,-294 141,-288 141,-282 141,-282 141,-177 141,-177 141,-171 147,-165 153,-165 153,-165 235,-165 235,-165 241,-165 247,-171 247,-177 247,-177 247,-282 247,-282 247,-288 241,-294 235,-294"/>
<text text-anchor="middle" x="194" y="-263.2" font-family="Arial" font-size="11.00">STM32</text>
<text text-anchor="start" x="163" y="-251.2" font-family="Arial" font-size="11.00">Potentiostat</text>
<text text-anchor="start" x="163" y="-226.2" font-family="Arial" font-size="11.00">• 2 x ADC</text>
<text text-anchor="start" x="163" y="-214.2" font-family="Arial" font-size="11.00"> &#160;(V, I)</text>
<text text-anchor="start" x="163" y="-202.2" font-family="Arial" font-size="11.00">• 1 x DAC</text>
<text text-anchor="start" x="163" y="-190.2" font-family="Arial" font-size="11.00"> &#160;(Scan Gen)</text>
</g>
<!-- reference&#45;&gt;stm32 -->
<!-- cell -->
<g id="node3" class="node">
<title>cell</title>
<path fill="#f8f8f8" stroke="#d32f2f" stroke-width="2" d="M243.5,-129C243.5,-129 144.5,-129 144.5,-129 138.5,-129 132.5,-123 132.5,-117 132.5,-117 132.5,-12 132.5,-12 132.5,-6 138.5,0 144.5,0 144.5,0 243.5,0 243.5,0 249.5,0 255.5,-6 255.5,-12 255.5,-12 255.5,-117 255.5,-117 255.5,-123 249.5,-129 243.5,-129"/>
<text text-anchor="middle" x="194" y="-98.2" font-family="Arial" font-size="11.00">Electrochemical</text>
<text text-anchor="start" x="154.5" y="-86.2" font-family="Arial" font-size="11.00">Cell</text>
<text text-anchor="start" x="154.5" y="-61.2" font-family="Arial" font-size="11.00">• Working Elec.</text>
<text text-anchor="start" x="154.5" y="-49.2" font-family="Arial" font-size="11.00">• Reference El.</text>
<text text-anchor="start" x="154.5" y="-37.2" font-family="Arial" font-size="11.00">• Counter Elec.</text>
<text text-anchor="start" x="154.5" y="-25.2" font-family="Arial" font-size="11.00">• Redox Sample</text>
</g>
<!-- reference&#45;&gt;cell -->
<g id="edge1" class="edge">
<title>reference&#45;&gt;cell</title>
<path fill="none" stroke="#d32f2f" stroke-width="2" d="M142.99,-366.49C103.97,-337.15 53.14,-290.91 30.5,-236 6.62,-178.09 68.99,-128.39 123.46,-97.63"/>
<polygon fill="#d32f2f" stroke="#d32f2f" stroke-width="2" points="125.4,-100.56 132.47,-92.67 122.02,-94.43 125.4,-100.56"/>
<text text-anchor="middle" x="61.5" y="-226.4" font-family="Arial" font-size="12.00" fill="#d32f2f">Transfer Calibration</text>
</g>
<!-- stm32&#45;&gt;cell -->
</g>
</svg>
